<svg version="1" xmlns="http://www.w3.org/2000/svg" viewBox="0 0 48 48"><path fill="#3F51B5" d="M39 43H9c-2.2 0-4-1.8-4-4V9c0-2.2 1.8-4 4-4h30c2.2 0 4 1.8 4 4v30c0 2.2-1.8 4-4 4z"/><path fill="#B3E5FC" d="M33.6 25.4c.1-.4.1-.9.1-1.4s0-.9-.1-1.4l2.8-2c.3-.2.4-.6.2-.9l-2.7-4.6c-.2-.3-.5-.4-.8-.3L30 16.3c-.7-.6-1.5-1-2.4-1.4l-.3-3.4c0-.3-.3-.6-.6-.6h-5.3c-.3 0-.6.3-.6.6l-.4 3.5c-.9.3-1.6.8-2.4 1.4L14.9 15c-.3-.1-.7 0-.8.3l-2.7 4.6c-.2.3-.1.7.2.9l2.8 2c-.1.4-.1.9-.1 1.4s0 .9.1 1.4l-2.8 2c-.3.2-.4.6-.2.9l2.7 4.6c.2.3.5.4.8.3L18 32c.7.6 1.5 1 2.4 1.4l.3 3.4c0 .3.3.6.6.6h5.3c.3 0 .6-.3.6-.6l.3-3.4c.9-.3 1.6-.8 2.4-1.4l3.1 1.4c.3.1.7 0 .8-.3l2.7-4.6c.2-.3.1-.7-.2-.9l-2.7-2.2zM24 29c-2.8 0-5-2.2-5-5s2.2-5 5-5 5 2.2 5 5-2.2 5-5 5z"/></svg>