<svg version="1" xmlns="http://www.w3.org/2000/svg" viewBox="0 0 48 48"><g fill="#37474F"><circle cx="33" cy="16" r="6"/><circle cx="15" cy="16" r="6"/><path d="M46.7 25l-15.3 3H16.7L1.4 25l4.3-7.9C6.8 15.2 8.8 14 11 14h26.2c2.2 0 4.2 1.2 5.3 3.1l4.2 7.9z"/><circle cx="38" cy="30" r="10"/><circle cx="10" cy="30" r="10"/><circle cx="24" cy="28" r="5"/></g><circle fill="#546E7A" cx="24" cy="28" r="2"/><g fill="#a0f"><circle cx="38" cy="30" r="7"/><circle cx="10" cy="30" r="7"/></g><path d="M41.7 27.7c-1-1.1-2.3-1.7-3.7-1.7s-2.8.6-3.7 1.7c-.4.4-.3 1 .1 1.4.4.4 1 .3 1.4-.1 1.2-1.3 3.3-1.3 4.5 0 .2.2.5.3.7.3.2 0 .5-.1.7-.3.4-.3.4-.9 0-1.3zM10 26c-1.4 0-2.8.6-3.7 1.7-.4.4-.3 1 .1 1.4.4.4 1 .3 1.4-.1 1.2-1.3 3.3-1.3 4.5 0 .2.2.5.3.7.3.2 0 .5-.1.7-.3.4-.4.4-1 .1-1.4-1-1-2.4-1.6-3.8-1.6z" fill="#CE93D8"/></svg>