<svg version="1" xmlns="http://www.w3.org/2000/svg" viewBox="0 0 48 48"><path fill="#00A344" d="M24 13c-7.2 0-13 5.8-13 13s5.8 13 13 13 13-5.8 13-13-5.8-13-13-13zm0 22c-5 0-9-4-9-9s4-9 9-9 9 4 9 9-4 9-9 9z"/><path fill="#00C853" d="M8.5 25.4c4-2.2 9-1.1 11.5 2.5.1.1.2.1.3.1l1.2-.7c.1-.1.2-.2.1-.3 0-.2-.1-.4-.1-.6v-.6c0-.1 0-.1.1-.2 0-.1 0-.1.1-.2 0 0 0-.1.1-.1 0 0 0-.1.1-.1 0 0 0-.1.1-.1l.1-.1.1-.1.1-.1.1-.1.1-.1h.1c.2-.1.4-.2.5-.2.1 0 .2-.1.2-.3v-1.3c0-.1-.1-.2-.2-.2-4.5-.4-8-4.1-8-8.6 0-4.1 3-7.6 6.9-8.4.1 0 .2-.1.2-.3v-.5c0-.1-.1-.2-.2-.2-5.6.9-10 5.8-10 11.7 0 1.3.2 2.6.6 3.8-1.2.2-2.5.7-3.6 1.3-5.2 3-7.3 9.2-5.2 14.5.1.1.2.1.3.1l.3-.2c.1-.1.2-.2.1-.3-1.2-3.8.3-8.1 4-10.1zm30.5-4c-1.2-.7-2.4-1.1-3.6-1.3.4-1.2.6-2.4.6-3.8 0-5.9-4.4-10.8-10.2-11.7-.1 0-.2.1-.2.2v.4c0 .1.1.2.2.3 4 .8 6.9 4.3 6.9 8.4 0 4.5-3.5 8.2-8 8.6-.1 0-.2.1-.2.2V24c0 .1.1.2.2.3.2.1.4.1.6.2l.1.1c.1 0 .1.1.1.1l.3.3.1.1.1.1v.2s0 .1.1.1c0 .1 0 .1.1.2v.7c0 .2 0 .4-.1.6 0 .1 0 .2.1.3l1.2.7c.1.1.2 0 .3-.1 2.6-3.6 7.6-4.8 11.5-2.5 3.6 2.1 5.2 6.3 3.9 10.1 0 .1 0 .2.1.3l.3.2c.1.1.2 0 .3-.1 2.5-5.4.4-11.6-4.8-14.5zm-8.2 18.9c-4-2.2-5.5-7.1-3.5-11.1.1-.1 0-.2-.1-.3l-1.2-.7c-.1-.1-.2 0-.3 0-.2.1-.3.3-.5.3-.1 0-.1.1-.2.1s-.1 0-.2.1c-.1 0-.3.1-.4.1h-1.2c-.1 0-.1 0-.2-.1 0 0-.1 0-.1-.1h-.1c-.2-.1-.3-.2-.5-.3-.1-.1-.2-.1-.3 0l-1.2.7c-.1.1-.1.2-.1.3 1.9 4 .4 8.8-3.5 11.1-3.6 2.1-8.2 1.3-10.9-1.7-.1-.1-.2-.1-.3-.1l-.3.2c-.1.1-.1.2-.1.3 3.6 4.5 10.2 5.8 15.4 2.8 1.2-.7 2.2-1.5 3-2.4.8.9 1.8 1.8 3 2.4 5.2 3 11.7 1.6 15.4-2.8.1-.1 0-.2-.1-.3l-.3-.3c-.1-.1-.2 0-.3.1-2.7 2.9-7.3 3.7-10.9 1.7z"/></svg>