<svg version="1" xmlns="http://www.w3.org/2000/svg" viewBox="0 0 48 48"><path d="M17.5 27c-1.1 1.2-2.7 2-4.5 2h-3c-3.3 0-6-2.7-6-6s2.7-6 6-6h3c1.8 0 3.4.8 4.5 2h4.7c-1.5-3.5-5.1-6-9.2-6h-3C4.5 13 0 17.5 0 23s4.5 10 10 10h3c4.1 0 7.6-2.5 9.2-6h-4.7zM38 13h-3c-4.1 0-7.6 2.5-9.2 6h4.7c1.1-1.2 2.7-2 4.5-2h3c3.3 0 6 2.7 6 6s-2.7 6-6 6h-3c-1.8 0-3.4-.8-4.5-2h-4.7c1.5 3.5 5.1 6 9.2 6h3c5.5 0 10-4.5 10-10s-4.5-10-10-10z" fill="#1976D2"/><path d="M19.5 4L16 6l6.1 8.1 1.3-.8zm9 0L32 6l-6.1 8.1-1.3-.8zm0 40l3.5-2-6.1-8.1-1.3.8zm-9 0L16 42l6.1-8.1 1.3.8z" fill="#00BCD4"/></svg>