<svg version="1" xmlns="http://www.w3.org/2000/svg" viewBox="0 0 48 48"><path fill="#616161" d="M40 16H8v24c0 2.2 1.8 4 4 4h24c2.2 0 4-1.8 4-4V16z"/><path fill="#424242" d="M36 4H12C9.8 4 8 5.8 8 8v9h32V8c0-2.2-1.8-4-4-4z"/><path fill="#9CCC65" d="M36 14H12c-.6 0-1-.4-1-1V8c0-.6.4-1 1-1h24c.6 0 1 .4 1 1v5c0 .6-.4 1-1 1z"/><path d="M33 10h2v2h-2zm-4 0h2v2h-2z" fill="#33691E"/><path fill="#FF5252" d="M36 23h-3c-.6 0-1-.4-1-1v-2c0-.6.4-1 1-1h3c.6 0 1 .4 1 1v2c0 .6-.4 1-1 1z"/><path d="M15 23h-3c-.6 0-1-.4-1-1v-2c0-.6.4-1 1-1h3c.6 0 1 .4 1 1v2c0 .6-.4 1-1 1zm7 0h-3c-.6 0-1-.4-1-1v-2c0-.6.4-1 1-1h3c.6 0 1 .4 1 1v2c0 .6-.4 1-1 1zm7 0h-3c-.6 0-1-.4-1-1v-2c0-.6.4-1 1-1h3c.6 0 1 .4 1 1v2c0 .6-.4 1-1 1zm-14 6h-3c-.6 0-1-.4-1-1v-2c0-.6.4-1 1-1h3c.6 0 1 .4 1 1v2c0 .6-.4 1-1 1zm7 0h-3c-.6 0-1-.4-1-1v-2c0-.6.4-1 1-1h3c.6 0 1 .4 1 1v2c0 .6-.4 1-1 1zm7 0h-3c-.6 0-1-.4-1-1v-2c0-.6.4-1 1-1h3c.6 0 1 .4 1 1v2c0 .6-.4 1-1 1zm-14 6h-3c-.6 0-1-.4-1-1v-2c0-.6.4-1 1-1h3c.6 0 1 .4 1 1v2c0 .6-.4 1-1 1zm7 0h-3c-.6 0-1-.4-1-1v-2c0-.6.4-1 1-1h3c.6 0 1 .4 1 1v2c0 .6-.4 1-1 1zm7 0h-3c-.6 0-1-.4-1-1v-2c0-.6.4-1 1-1h3c.6 0 1 .4 1 1v2c0 .6-.4 1-1 1zm-14 6h-3c-.6 0-1-.4-1-1v-2c0-.6.4-1 1-1h3c.6 0 1 .4 1 1v2c0 .6-.4 1-1 1zm7 0h-3c-.6 0-1-.4-1-1v-2c0-.6.4-1 1-1h3c.6 0 1 .4 1 1v2c0 .6-.4 1-1 1zm7 0h-3c-.6 0-1-.4-1-1v-2c0-.6.4-1 1-1h3c.6 0 1 .4 1 1v2c0 .6-.4 1-1 1z" fill="#E0E0E0"/><path d="M36 29h-3c-.6 0-1-.4-1-1v-2c0-.6.4-1 1-1h3c.6 0 1 .4 1 1v2c0 .6-.4 1-1 1zm0 6h-3c-.6 0-1-.4-1-1v-2c0-.6.4-1 1-1h3c.6 0 1 .4 1 1v2c0 .6-.4 1-1 1zm0 6h-3c-.6 0-1-.4-1-1v-2c0-.6.4-1 1-1h3c.6 0 1 .4 1 1v2c0 .6-.4 1-1 1z" fill="#BDBDBD"/></svg>