<svg version="1" xmlns="http://www.w3.org/2000/svg" viewBox="0 0 48 48"><path d="M38 4h2v20h-2zM15 7h2v17h-2zM8 27h2v17H8zm20-8h2v22h-2z" fill="#546E7A"/><path fill="#4CAF50" d="M36 7h6c1.1 0 2 .9 2 2v10c0 1.1-.9 2-2 2h-6c-1.1 0-2-.9-2-2V9c0-1.1.9-2 2-2zm-23 3h6c1.1 0 2 .9 2 2v7c0 1.1-.9 2-2 2h-6c-1.1 0-2-.9-2-2v-7c0-1.1.9-2 2-2z"/><path fill="#F44336" d="M6 30h6c1.1 0 2 .9 2 2v7c0 1.1-.9 2-2 2H6c-1.1 0-2-.9-2-2v-7c0-1.1.9-2 2-2zm20-8h6c1.1 0 2 .9 2 2v12c0 1.1-.9 2-2 2h-6c-1.1 0-2-.9-2-2V24c0-1.1.9-2 2-2z"/></svg>