<svg version="1" xmlns="http://www.w3.org/2000/svg" viewBox="0 0 48 48"><path fill="#4CAF50" d="M6 10v28c0 2.2 1.8 4 4 4h28c2.2 0 4-1.8 4-4V10c0-2.2-1.8-4-4-4H10c-2.2 0-4 1.8-4 4z"/><path d="M6.6 8l6 6c-.4.6-.6 1.3-.6 2 0 2.2 1.8 4 4 4s4-1.8 4-4-1.8-4-4-4c-.7 0-1.4.2-2 .6l-6-6c-.6.3-1.1.8-1.4 1.4zm9.4 6.5c.8 0 1.5.7 1.5 1.5s-.7 1.5-1.5 1.5-1.5-.7-1.5-1.5.7-1.5 1.5-1.5zM41.4 40l-6-6c.4-.6.6-1.3.6-2 0-2.2-1.8-4-4-4s-4 1.8-4 4 1.8 4 4 4c.7 0 1.4-.2 2-.6l6 6c.6-.3 1.1-.8 1.4-1.4zM32 33.5c-.8 0-1.5-.7-1.5-1.5s.7-1.5 1.5-1.5 1.5.7 1.5 1.5-.7 1.5-1.5 1.5zM16 36c2.2 0 4-1.8 4-4 0-.7-.2-1.4-.6-2L30 19.4c.6.4 1.3.6 2 .6 2.2 0 4-1.8 4-4s-1.8-4-4-4-4 1.8-4 4c0 .7.2 1.4.6 2L18 28.6c-.6-.4-1.3-.6-2-.6-2.2 0-4 1.8-4 4s1.8 4 4 4zm16-21.5c.8 0 1.5.7 1.5 1.5s-.7 1.5-1.5 1.5-1.5-.7-1.5-1.5.7-1.5 1.5-1.5zm-16 16c.8 0 1.5.7 1.5 1.5s-.7 1.5-1.5 1.5-1.5-.7-1.5-1.5.7-1.5 1.5-1.5z" fill="#FFC107"/></svg>