<svg version="1" xmlns="http://www.w3.org/2000/svg" viewBox="0 0 48 48"><path fill="#FF5722" d="M6 10v28c0 2.2 1.8 4 4 4h28c2.2 0 4-1.8 4-4V10c0-2.2-1.8-4-4-4H10c-2.2 0-4 1.8-4 4z"/><path d="M6 35h36v2H6zm0-4h36v2H6zm.1 8c.2.8.6 1.5 1.2 2h33.2c.6-.5 1-1.2 1.2-2H6.1zm0-30h35.7c-.2-.8-.6-1.5-1.2-2H7.4c-.6.5-1.1 1.2-1.3 2zM6 23h36v2H6zm0 4h36v2H6zm0-12h36v2H6zm0-4h36v2H6zm0 8h36v2H6z" fill="#BF360C"/><path d="M27 6h2v5h-2zm0 7h2v6h-2zm0 16h2v6h-2zm4-23h2v1h-2zM19 29h2v6h-2zM31 9h2v6h-2zm-8-3h2v1h-2zm0 19h2v6h-2zm0-16h2v6h-2zm-4 12h2v6h-2zm4-4h2v6h-2zm0 16h2v6h-2zm4-12h2v6h-2zm12 12h2v6h-2zm0-16h2v6h-2zm0 8h2v6h-2zm0-18.9V7h1.6c-.4-.4-1-.7-1.6-.9zM31 17h2v6h-2zm9.6 24H39v.9c.6-.2 1.2-.5 1.6-.9zM35 13h2v6h-2zm-4 20h2v6h-2zm4-4h2v6h-2zm4-20h2v6h-2zm-4 12h2v6h-2zm-4 4h2v6h-2zm4 12h2v5h-2zm0-31h2v5h-2zm-4 35h2v1h-2zm-8 0h2v1h-2zm4-4h2v5h-2zm-8 0h2v5h-2zM7 17h2v6H7zm2 24H7.4c.5.4 1 .7 1.6.9V41zM7.4 7H9v-.9c-.6.2-1.2.5-1.6.9zM7 33h2v6H7zm0-8h2v6H7zM7 9h2v6H7zm4 20h2v6h-2zm4-12h2v6h-2zm0 16h2v6h-2zm0-24h2v6h-2zm0-3h2v1h-2zm4 0h2v5h-2zm-4 19h2v6h-2zm0 16h2v1h-2zm-4-20h2v6h-2zm0-15h2v5h-2zm0 31h2v5h-2zm8-24h2v6h-2zm-8 0h2v6h-2z" fill="#FF8A65"/></svg>