<svg version="1" xmlns="http://www.w3.org/2000/svg" viewBox="0 0 48 48"><path d="M24 28h18v14H24zM6 10h12v32H6z" fill="#81D4FA"/><path d="M16 8h-2c0 1.1-.9 2-2 2s-2-.9-2-2H8c0 1.1-.9 2-2 2v2c1.2 0 2.3-.5 3-1.4.7.8 1.8 1.4 3 1.4s2.3-.5 3-1.4c.7.8 1.8 1.4 3 1.4v-2c-1.1 0-2-.9-2-2zm0 6h-2c0 1.1-.9 2-2 2s-2-.9-2-2H8c0 1.1-.9 2-2 2v2c1.2 0 2.3-.5 3-1.4.7.8 1.8 1.4 3 1.4s2.3-.5 3-1.4c.7.8 1.8 1.4 3 1.4v-2c-1.1 0-2-.9-2-2zm0 6h-2c0 1.1-.9 2-2 2s-2-.9-2-2H8c0 1.1-.9 2-2 2v2c1.2 0 2.3-.5 3-1.4.7.8 1.8 1.4 3 1.4s2.3-.5 3-1.4c.7.8 1.8 1.4 3 1.4v-2c-1.1 0-2-.9-2-2zm0 6h-2c0 1.1-.9 2-2 2s-2-.9-2-2H8c0 1.1-.9 2-2 2v2c1.2 0 2.3-.5 3-1.4.7.8 1.8 1.4 3 1.4s2.3-.5 3-1.4c.7.8 1.8 1.4 3 1.4v-2c-1.1 0-2-.9-2-2zm0 6h-2c0 1.1-.9 2-2 2s-2-.9-2-2H8c0 1.1-.9 2-2 2v2c1.2 0 2.3-.5 3-1.4.7.8 1.8 1.4 3 1.4s2.3-.5 3-1.4c.7.8 1.8 1.4 3 1.4v-2c-1.1 0-2-.9-2-2zm0 6h-2c0 1.1-.9 2-2 2s-2-.9-2-2H8c0 1.1-.9 2-2 2v2c1.2 0 2.3-.5 3-1.4.7.8 1.8 1.4 3 1.4s2.3-.5 3-1.4c.7.8 1.8 1.4 3 1.4v-2c-1.1 0-2-.9-2-2zm24-6h-2c0 1.1-.9 2-2 2s-2-.9-2-2h-2c0 1.1-.9 2-2 2s-2-.9-2-2h-2c0 1.1-.9 2-2 2v2c1.2 0 2.3-.5 3-1.4.7.8 1.8 1.4 3 1.4s2.3-.5 3-1.4c.7.8 1.8 1.4 3 1.4s2.3-.5 3-1.4c.7.8 1.8 1.4 3 1.4v-2c-1.1 0-2-.9-2-2zm0-6h-2c0 1.1-.9 2-2 2s-2-.9-2-2h-2c0 1.1-.9 2-2 2s-2-.9-2-2h-2c0 1.1-.9 2-2 2v2c1.2 0 2.3-.5 3-1.4.7.8 1.8 1.4 3 1.4s2.3-.5 3-1.4c.7.8 1.8 1.4 3 1.4s2.3-.5 3-1.4c.7.8 1.8 1.4 3 1.4v-2c-1.1 0-2-.9-2-2zm0 12h-2c0 1.1-.9 2-2 2s-2-.9-2-2h-2c0 1.1-.9 2-2 2v2c1.2 0 2.3-.5 3-1.4.7.8 1.8 1.4 3 1.4s2.3-.5 3-1.4c.7.8 1.8 1.4 3 1.4v-2c-1.1 0-2-.9-2-2z" fill="#1976D2"/><path fill="#455A64" d="M25.1 9.2L31.5 42H18V6h3.2c1.9 0 3.6 1.4 3.9 3.2z"/></svg>