<svg version="1" xmlns="http://www.w3.org/2000/svg" viewBox="0 0 48 48"><path fill="#8CBCD6" d="M31 41H8c-2.2 0-4-1.8-4-4V11c0-2.2 1.8-4 4-4h32c2.2 0 4 1.8 4 4v17c0 7.2-5.8 13-13 13z"/><circle fill="#B3DDF5" cx="35" cy="16" r="3"/><path fill="#9AC9E3" d="M20 16L9 32h22z"/><path fill="#B3DDF5" d="M31 22l-8 10h16z"/><path fill="#E57373" d="M47.7 29.1l-2.8-2.8c-.4-.4-1.1-.4-1.6 0L42 27.6l4.4 4.4 1.3-1.3c.4-.4.4-1.1 0-1.6z"/><path fill="#FF9800" d="M27.467 42.167L39.77 29.865l4.384 4.384L31.85 46.55z"/><path fill="#B0BEC5" d="M46.4 32.038l-2.192 2.192-4.383-4.384 2.192-2.191z"/><path fill="#FFC107" d="M27.5 42.2L26 48l5.8-1.5z"/><path fill="#37474F" d="M26.7 45l-.7 3 3-.7z"/></svg>