<svg version="1" xmlns="http://www.w3.org/2000/svg" viewBox="0 0 48 48"><path fill="#558B2F" d="M15 40h23l6 6V25c0-2.2-1.8-4-4-4H15c-2.2 0-4 1.8-4 4v11c0 2.2 1.8 4 4 4z"/><path fill="#1B5E20" d="M28.8 32.8h-3.6l-.7 2.1h-2.2l3.7-10h1.9l3.7 10h-2.2l-.6-2.1zm-3.1-1.6h2.5L27 27.4l-1.3 3.8z"/><path fill="#8BC34A" d="M33 25H10l-6 6V8c0-2.2 1.8-4 4-4h25c2.2 0 4 1.8 4 4v13c0 2.2-1.8 4-4 4z"/><path fill="#fff" d="M25.4 14.2c0 1-.2 1.8-.5 2.5s-.7 1.3-1.3 1.7l1.7 1.3-1.3 1.2-2.2-1.7c-.2 0-.5.1-.8.1-.6 0-1.2-.1-1.8-.3-.5-.2-1-.6-1.4-1-.4-.4-.7-1-.9-1.6-.2-.6-.3-1.3-.3-2.1v-.4c0-.8.1-1.5.3-2.1.2-.6.5-1.2.9-1.6.4-.4.8-.8 1.4-1 .5-.2 1.1-.3 1.8-.3.6 0 1.2.1 1.8.3.5.2 1 .6 1.4 1 .4.4.7 1 .9 1.6.2.6.3 1.3.3 2.1v.3zm-2.2-.5c0-1.1-.2-1.9-.6-2.4-.4-.6-.9-.8-1.6-.8-.7 0-1.3.3-1.6.8-.4.6-.6 1.4-.6 2.4v.5c0 .5.1 1 .2 1.4.1.4.2.8.4 1 .2.3.4.5.7.6.3.1.6.2.9.2.7 0 1.3-.3 1.6-.8.4-.6.6-1.4.6-2.5v-.4z"/></svg>