<svg version="1" xmlns="http://www.w3.org/2000/svg" viewBox="0 0 48 48"><path fill="#FFC107" d="M44 36H30V16c0-1.1.9-2 2-2h8c.6 0 1.2.3 1.6.8l6 7.7c.3.4.4.8.4 1.2V32c0 2.2-1.8 4-4 4z"/><g fill="#9575CD"><path d="M8 36h22V13c0-2.2-1.8-4-4-4H4v23c0 2.2 1.8 4 4 4z"/><path d="M0 9h10v2H0zm0 5h10v2H0zm0 5h10v2H0zm0 5h10v2H0z"/></g><path d="M4 11h16v2H4zm0 5h12v2H4zm0 5h8v2H4zm0 5h4v2H4z" fill="#7E57C2"/><g fill="#37474F"><circle cx="39" cy="36" r="5"/><circle cx="16" cy="36" r="5"/></g><g fill="#78909C"><circle cx="39" cy="36" r="2.5"/><circle cx="16" cy="36" r="2.5"/></g><path fill="#455A64" d="M44 26h-3.6c-.3 0-.5-.1-.7-.3l-1.4-1.4c-.2-.2-.4-.3-.7-.3H34c-.6 0-1-.4-1-1v-6c0-.6.4-1 1-1h5.5c.3 0 .6.1.8.4l4.5 5.4c.1.2.2.4.2.6V25c0 .6-.4 1-1 1z"/></svg>