<svg version="1" xmlns="http://www.w3.org/2000/svg" viewBox="0 0 48 48"><g fill="#3F51B5"><circle cx="8" cy="38" r="3"/><circle cx="16" cy="40" r="3"/><circle cx="24" cy="33" r="3"/><circle cx="32" cy="35" r="3"/><circle cx="40" cy="31" r="3"/><path d="M39.1 29.2l-7.3 3.7-8.3-2.1-8 7-7-1.7-1 3.8 9 2.3 8-7 7.7 1.9 8.7-4.3z"/></g><g fill="#00BCD4"><circle cx="8" cy="20" r="3"/><circle cx="16" cy="22" r="3"/><circle cx="24" cy="15" r="3"/><circle cx="32" cy="20" r="3"/><circle cx="40" cy="8" r="3"/><path d="M38.3 6.9c-2.1 3.2-5.3 8-6.9 10.4-1.2-.7-3.1-2-6.4-4l-1.3-.8-8.3 7.3-7-1.7-1 3.9 9 2.3 7.7-6.7c2.6 1.6 5.8 3.6 6.5 4.1l.5.5.9-.1c1.1-.1 1.1-.1 9.5-12.9l-3.2-2.3z"/></g></svg>