<svg version="1" xmlns="http://www.w3.org/2000/svg" viewBox="0 0 48 48"><path fill="#8CBCD6" d="M40 41H8c-2.2 0-4-1.8-4-4V11c0-2.2 1.8-4 4-4h32c2.2 0 4 1.8 4 4v26c0 2.2-1.8 4-4 4z"/><circle fill="#B3DDF5" cx="35" cy="16" r="3"/><path fill="#9AC9E3" d="M20 16L9 32h22z"/><path fill="#B3DDF5" d="M31 22l-8 10h16z"/><circle fill="#F44336" cx="38" cy="38" r="10"/><g fill="#fff"><path d="M43.31 41.181l-2.12 2.122-8.485-8.484 2.121-2.122z"/><path d="M34.819 43.31l-2.122-2.12 8.484-8.485 2.122 2.121z"/></g></svg>