<svg version="1" xmlns="http://www.w3.org/2000/svg" viewBox="0 0 48 48"><path fill="#455A64" d="M8 39h6v3H8zm26 0h6v3h-6z"/><path fill="#78909C" d="M40 41H8c-2.2 0-4-1.8-4-4V11c0-2.2 1.8-4 4-4h32c2.2 0 4 1.8 4 4v26c0 2.2-1.8 4-4 4z"/><path fill="#90A4AE" d="M40 38H8c-.6 0-1-.4-1-1V11c0-.6.4-1 1-1h32c.6 0 1 .4 1 1v26c0 .6-.4 1-1 1z"/><path fill="#37474F" d="M29 14c-5.5 0-10 4.5-10 10s4.5 10 10 10 10-4.5 10-10-4.5-10-10-10zm0 17c-3.9 0-7-3.1-7-7s3.1-7 7-7 7 3.1 7 7-3.1 7-7 7z"/><path d="M35.3 19.1l.4-.4c.4-.4.4-1 0-1.4s-1-.4-1.4 0l-.4.4c.5.4 1 .9 1.4 1.4zm-12.6 0c.4-.5.9-1 1.4-1.4l-.4-.4c-.4-.4-1-.4-1.4 0s-.4 1 0 1.4l.4.4zM21 24c0-.3 0-.7.1-1h-.6c-.6 0-1 .4-1 1s.4 1 1 1h.6c-.1-.3-.1-.7-.1-1zm8-8c.3 0 .7 0 1 .1v-.6c0-.6-.4-1-1-1s-1 .4-1 1v.6c.3-.1.7-.1 1-.1zm6.3 12.9c-.4.5-.9 1-1.4 1.4l.4.4c.2.2.5.3.7.3s.5-.1.7-.3c.4-.4.4-1 0-1.4l-.4-.4zm-12.6 0l-.4.4c-.4.4-.4 1 0 1.4.2.2.5.3.7.3s.5-.1.7-.3l.4-.4c-.5-.4-1-.9-1.4-1.4zM37.5 23h-.6c0 .3.1.7.1 1s0 .7-.1 1h.6c.6 0 1-.4 1-1s-.4-1-1-1zM29 32c-.3 0-.7 0-1-.1v.6c0 .6.4 1 1 1s1-.4 1-1v-.6c-.3.1-.7.1-1 .1z" fill="#B0BEC5"/><path fill="#455A64" d="M12 20c-1.1 0-2 .9-2 2v8c0 1.1.9 2 2 2s2-.9 2-2v-8c0-1.1-.9-2-2-2z"/><path fill="#CFD8DC" d="M12 18c-1.1 0-2 .9-2 2v8c0 1.1.9 2 2 2s2-.9 2-2v-8c0-1.1-.9-2-2-2z"/></svg>