<svg version="1" xmlns="http://www.w3.org/2000/svg" viewBox="0 0 48 48"><g fill="#616161"><path d="M29.175 31.99l2.828-2.827 12.019 12.019-2.828 2.827z"/><circle cx="20" cy="20" r="16"/></g><path fill="#37474F" d="M32.45 35.34l2.827-2.828 8.696 8.696-2.828 2.828z"/><circle fill="#64B5F6" cx="20" cy="20" r="13"/><path fill="#BBDEFB" d="M26.9 14.2c-1.7-2-4.2-3.2-6.9-3.2s-5.2 1.2-6.9 3.2c-.4.4-.3 1.1.1 1.4.4.4 1.1.3 1.4-.1C16 13.9 17.9 13 20 13s4 .9 5.4 2.5c.2.2.5.4.8.4.2 0 .5-.1.6-.2.4-.4.4-1.1.1-1.5z"/></svg>