<svg version="1" xmlns="http://www.w3.org/2000/svg" viewBox="0 0 48 48"><path fill="#FF6F00" d="M38.7 11.9l-3.1 2.5c2.2 2.7 3.4 6.1 3.4 9.5 0 8.3-6.7 15-15 15-.9 0-1.9-.1-2.8-.3l-.7 3.9c1.2.2 2.4.3 3.5.3 10.5 0 19-8.5 19-19 0-4.2-1.5-8.5-4.3-11.9z"/><path fill="#FF6F02" d="M31 8l11.9 1.6-9.8 9.8z"/><path fill="#FF6F00" d="M24 5C13.5 5 5 13.5 5 24c0 4.6 1.6 9 4.6 12.4l3-2.6C10.3 31.1 9 27.6 9 24c0-8.3 6.7-15 15-15 .9 0 1.9.1 2.8.3l.7-3.9C26.4 5.1 25.2 5 24 5z"/><path fill="#FF6F02" d="M17 40L5.1 38.4l9.8-9.8z"/></svg>