<svg version="1" xmlns="http://www.w3.org/2000/svg" viewBox="0 0 48 48"><path fill="#00BCD4" d="M7 31h10v10H7zm28.3-11.7l-5.6-5.6c-.4-.4-.4-1 0-1.4l5.6-5.6c.4-.4 1-.4 1.4 0l5.6 5.6c.4.4.4 1 0 1.4l-5.6 5.6c-.4.4-1 .4-1.4 0z"/><circle fill="#3F51B5" cx="12" cy="13" r="6"/><circle fill="#448AFF" cx="36" cy="36" r="6"/><g fill="#90A4AE"><path d="M11 24h2v5h-2z"/><path d="M12 21l-3 4h6z"/></g><g fill="#90A4AE"><path d="M20 12h5v2h-5z"/><path d="M28 13l-4-3v6z"/></g><g fill="#90A4AE"><path d="M35 21h2v5h-2z"/><path d="M36 29l3-4h-6z"/></g></svg>