<?xml version="1.0" encoding="UTF-8" ?>
<!DOCTYPE svg PUBLIC "-//W3C//DTD SVG 1.1//EN" "http://www.w3.org/Graphics/SVG/1.1/DTD/svg11.dtd">
<svg width="1024pt" height="1024pt" viewBox="0 0 1024 1024" version="1.1" xmlns="http://www.w3.org/2000/svg">
<g id="#79ddd1ff">
<path fill="#79ddd1" opacity="1.00" d=" M 436.95 120.74 C 469.18 115.44 502.20 116.04 534.71 118.11 C 564.38 120.66 593.51 127.62 622.06 135.79 C 622.85 136.32 623.65 136.86 624.45 137.41 C 627.56 137.78 630.53 138.81 633.53 139.68 C 634.09 140.25 634.67 140.83 635.25 141.40 C 661.10 149.60 685.08 162.84 708.54 176.28 C 732.39 191.04 754.15 208.96 774.69 228.00 C 779.24 232.90 784.25 237.33 788.88 242.15 C 794.21 250.31 802.43 256.19 807.48 264.53 C 826.56 287.61 842.19 313.36 854.90 340.47 C 856.48 344.15 858.69 347.58 859.76 351.48 C 861.63 356.51 865.34 361.14 865.51 366.60 C 866.15 367.31 866.80 368.01 867.46 368.72 C 867.44 369.72 867.44 370.73 867.44 371.73 C 867.91 372.10 868.87 372.84 869.34 373.21 C 869.39 374.26 869.44 375.32 869.50 376.38 C 879.53 401.69 884.94 428.97 889.37 455.87 C 896.46 515.13 891.02 575.97 871.75 632.52 C 870.07 639.40 867.05 645.86 865.01 652.64 C 864.65 653.06 863.94 653.92 863.58 654.34 C 863.18 658.01 861.39 661.28 859.74 664.51 C 858.15 670.12 854.57 674.90 852.92 680.49 C 847.88 689.20 844.09 698.70 839.06 707.45 C 838.67 707.73 837.89 708.28 837.50 708.56 C 837.44 709.14 837.40 709.74 837.37 710.34 C 835.07 712.87 833.94 716.19 831.74 718.81 C 824.09 731.53 815.77 744.15 805.40 754.80 C 805.45 755.24 805.52 755.70 805.60 756.17 C 777.75 787.70 747.64 817.65 712.09 840.48 C 711.38 840.41 709.97 840.26 709.26 840.19 C 709.28 840.80 709.31 842.01 709.33 842.61 C 699.50 848.37 689.72 854.37 680.09 860.42 C 679.55 860.40 678.45 860.36 677.90 860.35 C 670.19 866.31 660.48 869.19 652.06 874.08 C 647.03 875.15 642.61 878.00 637.99 880.13 C 635.87 880.44 633.86 881.19 632.08 882.37 C 631.24 882.42 630.41 882.46 629.60 882.53 C 628.12 883.66 626.40 884.35 624.59 884.70 C 599.85 893.70 574.16 900.19 548.01 903.20 C 522.66 907.54 496.73 906.55 471.01 906.35 C 454.72 904.14 437.42 904.99 422.11 898.78 C 391.07 888.95 373.10 850.19 387.18 820.43 C 393.15 809.49 399.39 798.65 406.59 788.48 C 406.62 787.94 406.67 786.87 406.70 786.34 C 410.53 783.70 411.61 778.98 414.31 775.43 C 427.44 755.40 439.43 734.65 452.41 714.53 C 452.46 713.80 452.50 713.09 452.56 712.38 C 452.97 712.12 453.80 711.60 454.21 711.33 C 472.15 683.24 489.84 655.01 507.26 626.60 C 520.15 607.25 531.77 587.11 544.74 567.80 C 555.72 550.18 566.32 532.29 578.64 515.52 C 579.09 515.32 580.00 514.92 580.45 514.72 C 584.86 507.49 593.40 504.81 599.80 499.80 C 605.84 498.60 611.46 495.59 617.74 495.36 C 628.47 493.31 639.29 496.12 649.33 499.83 C 660.30 505.72 670.53 513.51 676.86 524.43 C 678.03 527.23 679.46 529.92 680.98 532.56 C 685.65 545.74 688.35 560.60 683.19 574.08 C 678.89 590.04 668.09 602.91 659.82 616.86 C 655.00 624.41 650.41 632.07 645.54 639.59 C 645.45 640.08 645.27 641.07 645.18 641.57 C 634.30 655.91 625.78 672.04 615.57 686.85 C 615.46 687.29 615.25 688.15 615.14 688.58 C 608.62 697.93 602.94 707.85 596.73 717.42 C 591.71 725.18 586.57 732.88 581.93 740.89 C 576.13 749.30 571.17 758.27 565.88 766.98 C 563.15 771.90 559.32 776.15 557.04 781.32 C 555.28 783.08 553.89 785.14 553.78 787.72 C 572.98 786.47 590.65 777.75 608.46 771.27 C 614.88 767.87 621.81 765.44 628.02 761.66 C 628.54 761.65 629.60 761.65 630.13 761.64 C 632.92 758.66 637.16 757.66 640.56 755.49 C 673.60 736.67 702.26 710.52 725.23 680.27 C 734.43 666.30 743.99 652.55 751.52 637.59 C 758.91 622.31 765.12 606.43 769.93 590.16 C 771.05 586.60 773.17 583.15 772.27 579.28 C 772.64 579.38 773.36 579.58 773.73 579.68 C 777.99 558.01 782.01 536.17 782.67 513.97 C 783.11 471.69 774.68 429.46 758.35 390.52 C 750.91 376.57 744.98 361.49 734.63 349.36 C 734.55 348.70 734.48 348.04 734.43 347.39 C 718.55 325.78 701.09 304.46 679.21 288.73 C 678.96 288.30 678.46 287.45 678.21 287.02 C 671.80 283.09 666.48 277.40 659.73 274.05 C 653.16 268.58 645.27 265.21 638.15 260.64 C 637.61 260.56 637.09 260.48 636.57 260.40 C 635.93 259.72 635.30 259.05 634.67 258.38 C 634.14 258.33 633.09 258.24 632.56 258.19 C 627.30 254.63 621.47 252.03 615.49 249.92 C 612.62 248.18 609.52 246.83 606.24 246.10 C 605.85 245.73 605.08 244.97 604.69 244.59 C 580.80 236.31 556.25 228.96 531.01 226.43 C 511.55 222.88 491.66 225.01 472.00 224.48 C 444.69 227.43 417.57 232.02 391.98 242.38 C 391.45 242.37 390.39 242.35 389.86 242.33 C 382.63 247.00 373.28 249.09 366.03 254.31 C 365.40 254.32 364.15 254.34 363.52 254.35 C 349.56 263.79 334.18 271.27 321.34 282.40 C 317.70 285.43 313.96 288.35 310.01 290.97 C 304.99 297.83 297.06 302.00 292.33 309.24 C 273.73 328.05 257.96 349.51 244.98 372.50 C 241.77 376.97 240.36 382.58 237.46 386.95 C 237.45 387.45 237.44 388.45 237.43 388.95 C 232.09 396.08 229.76 405.82 222.00 411.02 C 217.76 416.27 211.32 418.66 205.93 422.42 C 204.78 422.42 203.63 422.42 202.48 422.42 C 201.69 423.05 200.91 423.69 200.12 424.32 C 186.45 426.32 171.54 425.89 159.41 418.55 C 158.89 418.47 157.85 418.32 157.33 418.24 C 153.36 413.60 147.41 411.16 143.93 405.99 C 139.30 402.03 137.80 395.97 134.47 391.09 C 134.53 390.42 134.65 389.09 134.71 388.43 C 134.03 387.32 133.36 386.22 132.68 385.13 C 132.55 378.41 130.44 371.73 131.82 365.03 C 132.27 354.99 137.20 346.03 140.98 336.95 C 142.87 332.66 145.79 328.89 147.17 324.37 C 148.85 322.33 150.29 320.06 151.01 317.49 C 179.32 267.71 217.68 223.31 263.89 189.22 C 269.02 185.44 274.69 182.33 279.28 177.84 C 279.83 177.75 280.92 177.56 281.46 177.47 C 299.89 165.06 319.98 155.44 340.02 145.92 C 342.86 145.14 345.67 144.22 348.47 143.28 C 376.55 131.32 406.73 124.53 436.95 120.74 Z" />
</g>
<g id="#10b0eaff">
<path fill="#10b0ea" opacity="1.00" d=" M 432.32 344.48 C 457.72 340.53 485.03 356.16 493.22 380.77 C 495.25 389.30 495.94 398.07 496.62 406.79 C 495.86 422.36 485.73 435.09 477.76 447.76 C 412.01 551.93 345.12 655.36 279.72 759.74 C 272.04 773.31 259.17 784.20 243.82 787.80 C 214.41 797.09 179.90 777.16 172.84 747.17 C 169.95 732.97 171.27 717.52 178.75 704.83 C 219.31 640.18 261.36 576.47 301.65 511.65 C 331.78 465.03 361.02 417.86 391.28 371.33 C 400.29 356.94 415.50 346.94 432.32 344.48 Z" />
</g>
</svg>
