<?xml version="1.0" encoding="UTF-8"?>
<!DOCTYPE svg PUBLIC "-//W3C//DTD SVG 1.1//EN" "http://www.w3.org/Graphics/SVG/1.1/DTD/svg11.dtd">
<!-- Creator: CorelDRAW -->
<svg xmlns="http://www.w3.org/2000/svg" xml:space="preserve" width="50mm" height="50mm" version="1.1" style="shape-rendering:geometricPrecision; text-rendering:geometricPrecision; image-rendering:optimizeQuality; fill-rule:evenodd; clip-rule:evenodd"
viewBox="0 0 5000 5000"
 xmlns:xlink="http://www.w3.org/1999/xlink"
 xmlns:xodm="http://www.corel.com/coreldraw/odm/2003">
 <defs>
  <style type="text/css">
   <![CDATA[
    .fil0 {fill:none}
    .fil1 {fill:#FEFEFE}
   ]]>
  </style>
 </defs>
 <g id="Layer_x0020_1">
  <metadata id="CorelCorpID_0Corel-Layer"/>
  <rect class="fil0" x="-7.13" y="0.53" width="5000" height="5000"/>
  <rect class="fil0" x="359.2" y="425.8" width="4200" height="4200"/>
  <path class="fil1" d="M372.92 4454l4238.44 3.03c28.14,-72.14 13.22,-2706.66 13.22,-3016.28 0,-228.27 27.38,-488.13 -94.46,-651.17 -116.74,-156.2 -234.99,-234.88 -518,-234.36l-3023.09 0.01c-266.38,-0.34 -410.58,64.81 -527.8,224.75 -133.89,182.7 -97.52,410.12 -97.52,660.77 0,309.69 -13.86,2947.53 9.21,3013.25zm355.48 -356.69c61.89,20.09 3469.12,20.09 3531.01,0 22.39,-68.35 18.75,-1889.59 -3.31,-1941.53l-3520.09 -3.89c-26.37,55.83 -30,1877.07 -7.61,1945.42zm121.18 -3176.67c-171.36,45.81 -130.14,226.8 -130.14,426.89 0,462.8 -47.24,452.94 109.11,449.37 365.16,-8.34 739.81,-0.59 1106.02,-0.59 736.28,0 1490.69,-16.18 2224.68,0.59 153.53,3.51 109.11,27.31 109.11,-436.05 0,-568.17 58.83,-455.46 -1215.13,-455.46 -294.59,0 -2068.41,-20.9 -2203.65,15.25zm2893.74 181.19c-316.22,99.2 -194.88,612.39 167.4,503.19 317.76,-95.8 177.81,-611.49 -167.4,-503.19zm-1416.13 -2.59c-314.55,98.07 -203.59,610.44 159.42,507.36 122.51,-34.79 217.86,-172.32 170.27,-329.25 -38.94,-128.44 -169.02,-228.21 -329.69,-178.11zm701.99 5.38c-337.09,120.7 -152.31,624.05 184.2,496.22 307.58,-116.85 146.7,-614.7 -184.2,-496.22z"/>
 </g>
</svg>
