<?xml version="1.0" encoding="UTF-8"?>
<!DOCTYPE svg PUBLIC "-//W3C//DTD SVG 1.1//EN" "http://www.w3.org/Graphics/SVG/1.1/DTD/svg11.dtd">
<!-- Creator: CorelDRAW -->
<svg xmlns="http://www.w3.org/2000/svg" xml:space="preserve" width="50mm" height="50mm" version="1.1" style="shape-rendering:geometricPrecision; text-rendering:geometricPrecision; image-rendering:optimizeQuality; fill-rule:evenodd; clip-rule:evenodd"
viewBox="0 0 5000 5000"
 xmlns:xlink="http://www.w3.org/1999/xlink"
 xmlns:xodm="http://www.corel.com/coreldraw/odm/2003">
 <defs>
  <style type="text/css">
   <![CDATA[
    .fil0 {fill:none}
    .fil1 {fill:#FEFEFE}
   ]]>
  </style>
 </defs>
 <g id="Layer_x0020_1">
  <metadata id="CorelCorpID_0Corel-Layer"/>
  <rect class="fil0" x="-7.13" y="0.53" width="5000" height="5000"/>
  <rect class="fil0" x="359.2" y="425.8" width="4200" height="4200"/>
  <g id="_2493153293872">
   <path class="fil1" d="M3564.39 2360.73c-180.8,108.28 -871.19,66.09 -1131.84,66.09l-1807.51 -0.37c-98.25,-0.64 -176.79,14.98 -191.05,107.21 -29.6,191.35 68.18,616 139.09,773.64 64.85,144.18 148.04,282.78 239.51,367.2 569.21,525.29 2080.63,379.39 2666.44,-327.92 127.85,-154.36 261.45,-355.87 351.85,-552.15 25.76,-55.95 66.36,-171.12 99.12,-209.61 7.45,-4.19 515.8,10.11 629.2,-402.83 -54.73,-61.21 -130.6,-97.84 -230.57,-112.54 -227.51,-33.45 -220.73,7.35 -318.99,-3.77 -44.32,-211.71 -101.47,-266.09 -222.25,-384.82 -33.06,-32.5 -72.21,-62.95 -128.48,-74.94 -77.01,58.56 -134.65,225.32 -156.11,341.97 -39.27,213.43 70.01,336.1 61.59,412.84z"/>
   <path class="fil1" d="M1283.56 1564.02c0,379.47 -46.42,316.69 206.62,316.63 271.73,-0.06 221.8,67.51 221.8,-316.63 0,-93.4 -10.57,-71.92 -208.89,-71.86 -209.3,0.06 -219.53,-23.92 -219.53,71.86z"/>
   <path class="fil1" d="M2298.34 1099.29c0,389.01 -79.52,313.54 353.66,313.54 97.48,0 83.98,-71.72 74.81,-313.54l-5.19 -68.37c-119.79,-13.51 -229.51,-6.75 -353.62,-6.44 -57.78,0 -69.66,15.22 -69.66,74.81z"/>
   <path class="fil1" d="M2298.34 1564.02c0,105.95 -5.17,203.47 7.41,305.13 52.26,19.49 173.88,11.36 243.01,11.51 155.01,0.35 201.34,75.35 178.05,-316.64l-7.72 -64.81c-60.4,-12.85 -163.48,-6.93 -234.92,-7.06 -96.2,-0.17 -185.83,-31.37 -185.83,71.87z"/>
   <path class="fil1" d="M1283.56 2028.74l5.87 314.29c96.79,11.5 264.17,4.86 368.57,4.74 84.05,-0.08 53.98,-120.91 53.98,-319.03 0,-101.4 -34.57,-69.33 -365.41,-69.33 -58.14,0 -63.01,12.52 -63.01,69.33z"/>
   <path class="fil1" d="M781.06 2028.74c0,394.77 -79.09,319.5 360.58,319.5 63.17,0 67.92,-10.19 67.92,-74.23l-5.32 -303.23c-113.86,-20.63 -231.14,-10.08 -346.6,-9.76 -69.96,0 -76.58,-2.05 -76.58,67.72z"/>
   <path class="fil1" d="M2217.18 2342.26c10.78,-70.24 42.6,-354.21 -32.76,-376.38 -3.28,-0.96 -6.97,-2.26 -10.79,-3.09l-369.01 6.03c-19.09,58.5 -10.61,126.8 -10.65,189.01 -0.02,34.44 -1.58,70.67 -1.28,104.55 0.43,49.08 -8.29,63.76 26.16,81.49 28.13,14.47 360.3,4.92 398.33,-1.61z"/>
   <path class="fil1" d="M2806.47 2028.74l5.96 314.39c71.63,10.2 161.75,4.52 239.76,4.65 206.51,0.35 182.73,62.3 182.73,-319.04 0,-101.36 -36.76,-69.33 -363.47,-69.33 -60.11,0 -64.98,11.84 -64.98,69.33z"/>
   <path class="fil1" d="M2298.34 2028.74c0,228.33 -30.69,319.03 69.66,319.03l351.8 -5.11c14.32,-115.03 7.38,-194.85 7.01,-313.92 -0.31,-103.53 -108.16,-69.33 -358.81,-69.33 -68.94,0 -69.66,0.16 -69.66,69.33z"/>
   <path class="fil1" d="M1793.98 1564.02l5.46 308.73c66.29,14.15 346.71,13.05 415.31,1.57 16.29,-112.56 12.29,-261.35 1.63,-375.72l-364.64 -6.83c-57,4.38 -57.76,12.19 -57.76,72.25z"/>
  </g>
 </g>
</svg>
