<!DOCTYPE svg PUBLIC "-//W3C//DTD SVG 1.1//EN" "http://www.w3.org/Graphics/SVG/1.1/DTD/svg11.dtd">
<!-- Uploaded to: SVG Repo, www.svgrepo.com, Transformed by: SVG Repo Mixer Tools -->
<svg fill="#fff" width="800px" height="800px" viewBox="0 0 1024 1024" t="1569683928793" class="icon" version="1.1" xmlns="http://www.w3.org/2000/svg" p-id="15091" xmlns:xlink="http://www.w3.org/1999/xlink" transform="matrix(-1, 0, 0, 1, 0, 0)" stroke="#fff">
<g id="SVGRepo_bgCarrier" stroke-width="0"/>
<g id="SVGRepo_tracerCarrier" stroke-linecap="round" stroke-linejoin="round"/>
<g id="SVGRepo_iconCarrier">
<defs>
<style type="text/css"/>
</defs>
<path d="M464 144H160c-8.8 0-16 7.2-16 16v304c0 8.8 7.2 16 16 16h304c8.8 0 16-7.2 16-16V160c0-8.8-7.2-16-16-16z m-52 268H212V212h200v200zM864 144H560c-8.8 0-16 7.2-16 16v304c0 8.8 7.2 16 16 16h304c8.8 0 16-7.2 16-16V160c0-8.8-7.2-16-16-16z m-52 268H612V212h200v200zM864 544H560c-8.8 0-16 7.2-16 16v304c0 8.8 7.2 16 16 16h304c8.8 0 16-7.2 16-16V560c0-8.8-7.2-16-16-16z m-52 268H612V612h200v200zM424 712H296V584c0-4.4-3.6-8-8-8h-48c-4.4 0-8 3.6-8 8v128H104c-4.4 0-8 3.6-8 8v48c0 4.4 3.6 8 8 8h128v128c0 4.4 3.6 8 8 8h48c4.4 0 8-3.6 8-8V776h128c4.4 0 8-3.6 8-8v-48c0-4.4-3.6-8-8-8z" p-id="15092"/>
</g>
</svg>