<?xml version="1.0" encoding="UTF-8"?>
<!DOCTYPE svg PUBLIC "-//W3C//DTD SVG 1.1//EN" "http://www.w3.org/Graphics/SVG/1.1/DTD/svg11.dtd">
<!-- Creator: CorelDRAW -->
<svg xmlns="http://www.w3.org/2000/svg" xml:space="preserve" width="50mm" height="50mm" version="1.1" style="shape-rendering:geometricPrecision; text-rendering:geometricPrecision; image-rendering:optimizeQuality; fill-rule:evenodd; clip-rule:evenodd"
viewBox="0 0 5000 5000"
 xmlns:xlink="http://www.w3.org/1999/xlink"
 xmlns:xodm="http://www.corel.com/coreldraw/odm/2003">
 <defs>
  <style type="text/css">
   <![CDATA[
    .fil0 {fill:none}
    .fil1 {fill:#FEFEFE}
   ]]>
  </style>
 </defs>
 <g id="Layer_x0020_1">
  <metadata id="CorelCorpID_0Corel-Layer"/>
  <rect class="fil0" x="-7.13" y="0.53" width="5000" height="5000"/>
  <rect class="fil0" x="359.2" y="425.8" width="4200" height="4200"/>
  <path class="fil1" d="M2827.03 3011.11c-70.29,27.1 -1413.34,8.18 -1612.37,8.49 -299.85,0.46 -442.84,60.79 -598.96,217.77 -169.35,170.27 -189.3,340.05 -186.99,637.76 1.88,243.4 110.8,436.81 260.22,551.34 203.24,155.78 369.61,144.52 667.56,144.52l2449.51 0.01c373.62,0.59 630.78,-188.89 718.93,-492.54 57.36,-197.56 43.7,-511.33 -62.1,-705.53 -184.58,-338.81 -487.51,-353.16 -876,-353.16 -52.19,0 -369.6,7.08 -391.05,-5.66 -34.91,-20.72 -18.95,-327.06 -18.95,-389.77 0,-93.19 15.62,-307.45 -24.18,-377.98 -54.58,-96.71 -199.15,-115.61 -280.98,-14.88 -93.11,114.6 10.85,624.17 -44.64,779.63zm-1801.27 372.58c-378.72,119.43 -271.75,620.14 -158.74,735.79 123.65,126.52 220.09,104.63 425.01,104.63 365.78,0 2585.4,15.96 2673.04,-10.18 327.64,-97.7 288.5,-581.96 149.51,-737.93 -98.68,-110.71 -235.85,-108.3 -424.61,-108.28 -381.13,0.02 -2550.7,-19.82 -2664.21,15.97zm1780.92 -2925.57c-342.1,60.64 -548.49,89.1 -868.97,285.05 -95.7,58.51 -420.2,294.81 -467.77,396.04 -44.7,95.12 -1.43,185.9 56.8,218.84 169.45,95.86 280.66,-80.62 365.93,-156.97 321.34,-287.73 851.56,-455.85 1322.47,-397.3 269.2,33.47 611.85,165.07 818.77,329.16 27.05,21.46 47.71,40.88 78.59,63.36 67.02,48.81 159.39,177.92 249.69,191.68 89.43,13.63 159.51,-42.28 181.31,-101.52 43.32,-117.68 -11.56,-165.01 -61.29,-215.24 -190.74,-192.63 -385.55,-338.98 -692.8,-467.31 -263.94,-110.25 -665.81,-201.97 -982.73,-145.79zm48 859.84c-194.88,22.87 -353.02,89.87 -486.15,178.18 -494.61,328.08 -108.5,517.44 44.23,405.33 55.77,-40.93 57.28,-64.87 189.49,-145.57 216.03,-131.86 559.53,-144.54 798.92,-3.21 38.71,22.85 70.87,45.69 102.2,65.75 57.21,36.63 47.9,43.08 88.9,78.34 158.65,136.42 391.68,-67.9 245.4,-245.1 -200.4,-242.76 -627.17,-375.49 -982.99,-333.72zm-1710.63 2232.72c-336.39,76.6 -210.72,581.51 123.4,491.82 317.52,-85.22 204.58,-566.5 -123.4,-491.82zm684.69 1.26c-119.77,30.62 -233.15,152.58 -185.99,319.12 32.8,115.83 167.79,214.26 318.44,169.97 317.66,-93.39 186.93,-570.72 -132.45,-489.09z"/>
 </g>
</svg>
