<?xml version="1.0" encoding="UTF-8"?>
<!DOCTYPE svg PUBLIC "-//W3C//DTD SVG 1.1//EN" "http://www.w3.org/Graphics/SVG/1.1/DTD/svg11.dtd">
<!-- Creator: CorelDRAW -->
<svg xmlns="http://www.w3.org/2000/svg" xml:space="preserve" width="50mm" height="50mm" version="1.1" style="shape-rendering:geometricPrecision; text-rendering:geometricPrecision; image-rendering:optimizeQuality; fill-rule:evenodd; clip-rule:evenodd"
viewBox="0 0 5000 5000"
 xmlns:xlink="http://www.w3.org/1999/xlink"
 xmlns:xodm="http://www.corel.com/coreldraw/odm/2003">
 <defs>
  <style type="text/css">
   <![CDATA[
    .fil0 {fill:none}
    .fil1 {fill:#FEFEFE}
   ]]>
  </style>
 </defs>
 <g id="Layer_x0020_1">
  <metadata id="CorelCorpID_0Corel-Layer"/>
  <rect class="fil0" x="-7.13" y="0.53" width="5000" height="5000"/>
  <rect class="fil0" x="359.2" y="425.8" width="4200" height="4200"/>
  <path class="fil1" d="M1407.32 444.98c-302.95,58.15 -492.93,187.43 -628.13,364.55 -190.34,249.39 -189.52,440.7 -189.52,803.43 0,661.88 0,1323.75 0,1985.62 0,356.36 -12.87,578.56 200.12,779.8 257.33,243.13 424.07,206.03 792.71,206.03 666.18,0 1332.41,-0.66 1998.59,0.01 286.67,0.29 523.92,-50.8 687.78,-298.14 170.53,-257.43 123.37,-534.04 123.37,-882.37 0,-660.89 6.65,-1325.14 0,-1985.61 -4.25,-423.04 -237.55,-767.19 -578.04,-908.06 -141.51,-58.54 -255.44,-78.3 -427.77,-78.37 -304.06,-0.13 -1806.14,-20.09 -1979.11,13.11zm67.49 511.37c-460.64,79.37 -368.53,575.71 -368.53,929.15l0.4 1451.85c11.52,55.82 60.5,39.33 125.08,38.51l2607.83 -1.35c59.83,-14.05 36.03,-155.95 36.03,-282.07 0,-360.27 34.53,-1739.94 -45.53,-1897.07 -69.34,-136.07 -206.08,-240.62 -404.2,-246.45 -218.5,-6.44 -1842.58,-11.27 -1951.08,7.43zm1400.81 2773.56c-138.42,35.32 -235.69,128.4 -204.41,309.49 21.92,126.97 159.2,232.53 321.48,191.04 315,-80.52 200.32,-581.51 -117.07,-500.53zm706.48 -5.83c-350.8,67.23 -265.59,559.95 76.14,511.25 131.35,-18.72 238.8,-141.65 211.87,-298.85 -20.97,-122.36 -148.95,-239.05 -288.01,-212.4z"/>
 </g>
</svg>
