<?xml version="1.0" encoding="UTF-8"?>
<!DOCTYPE svg PUBLIC "-//W3C//DTD SVG 1.1//EN" "http://www.w3.org/Graphics/SVG/1.1/DTD/svg11.dtd">
<!-- Creator: CorelDRAW -->
<svg xmlns="http://www.w3.org/2000/svg" xml:space="preserve" width="50mm" height="50mm" version="1.1" style="shape-rendering:geometricPrecision; text-rendering:geometricPrecision; image-rendering:optimizeQuality; fill-rule:evenodd; clip-rule:evenodd"
viewBox="0 0 5000 5000"
 xmlns:xlink="http://www.w3.org/1999/xlink"
 xmlns:xodm="http://www.corel.com/coreldraw/odm/2003">
 <defs>
  <style type="text/css">
   <![CDATA[
    .fil0 {fill:none}
    .fil1 {fill:#FEFEFE}
   ]]>
  </style>
 </defs>
 <g id="Layer_x0020_1">
  <metadata id="CorelCorpID_0Corel-Layer"/>
  <rect class="fil0" x="-7.13" y="0.53" width="5000" height="5000"/>
  <rect class="fil0" x="359.2" y="425.8" width="4200" height="4200"/>
  <g id="_2493146193296">
   <path class="fil1" d="M4628.56 3079.6l0 -262.69c-24.51,-58.86 -24.83,-213.48 -107.31,-407.8 -146.93,-346.22 -447.12,-663.19 -813.6,-788.23 -371.04,-126.6 -71.13,-227.91 -581.18,-753.04 -134.79,-138.77 -290.27,-237.3 -487.88,-313.2 -516.55,-198.41 -1223.47,-44.55 -1555.99,376.9 -109.94,139.35 -127.47,148.47 -217.94,315.63 -51.34,94.87 -114.67,284.99 -131.44,401.67 -65.1,452.88 35.68,567.75 142.7,889.72 -249.72,154.8 -417.57,335.32 -487.23,622.61 -41.29,170.32 -40.51,322.16 10.54,487.26 81.6,263.89 261.48,477.28 501.31,606.34 96.89,52.14 307.1,142.38 422.66,93.56 152.94,-64.62 123.97,-282.46 -26.66,-330.43 -176.35,-56.15 -264.23,-74.71 -380.35,-179.36 -65.39,-58.92 -172.79,-210.47 -194.15,-352.26 -34.66,-230.06 67.35,-462.13 245.46,-588.18 66.86,-47.32 103.34,-56.44 162.04,-118.15 110.65,-116.31 130.29,-256.54 52.76,-422.02 -302.99,-646.65 40.61,-1264.52 539.84,-1467.5 559.18,-227.37 1182.55,17.6 1420.99,641.38 27.13,70.96 50.64,136.92 88.23,192.02 221.05,324.11 791.12,185.69 1006.1,955.89 124.78,447 -89.46,926.35 -464.9,1142.01 -115.19,66.17 -289.34,143.05 -177.4,313.6 96.48,146.99 274.09,49.23 388.83,-22.62l228.72 -184.51c189.29,-192.43 282.32,-342.78 367.93,-620.06 18.73,-60.65 25.57,-179.21 47.92,-228.54z"/>
   <path class="fil1" d="M2317.93 2775.75c-268.15,36.53 -456.24,103.31 -659.59,225.99 -49.73,30.01 -83.48,53.97 -126.7,86.93 -119.91,91.44 -326.86,244.15 -159.18,400.66 122.15,114 233.92,3.74 297.9,-61.59 45.3,-46.25 204.11,-142.31 267.22,-173.59 211.66,-104.9 483.18,-163.1 748.32,-117.01 229.17,39.84 430.49,134.63 608.75,271.83 25.33,19.49 149.58,193.47 298.71,99.83 95.67,-60.07 104.08,-209.99 23.32,-288.34l-246.6 -193.93c-82.9,-52.43 -187.71,-112.69 -290.36,-150.33 -225.5,-82.71 -502.35,-135.79 -761.79,-100.45z"/>
   <path class="fil1" d="M2385.84 3483.7c-212.97,30.63 -678.18,222.2 -548.89,462.03 30.5,56.58 94.68,95.85 174.86,90.58 42.64,-2.8 69.31,-17.61 95.13,-38.73 139.21,-113.86 275.65,-192.95 495.02,-148.21 61.97,12.64 130.16,38.33 180.83,71.52 49.56,32.46 106.45,95.96 156.79,110.47 213.14,61.45 435.59,-260.64 -102.68,-485.23 -131.77,-54.98 -296.6,-84.65 -451.06,-62.43z"/>
   <path class="fil1" d="M2456.67 4193.91c-242.99,67.18 -138.09,399.04 82.71,343.23 215.08,-54.37 136.01,-403.7 -82.71,-343.23z"/>
  </g>
 </g>
</svg>
