<?xml version="1.0" encoding="UTF-8"?>
<!DOCTYPE svg PUBLIC "-//W3C//DTD SVG 1.1//EN" "http://www.w3.org/Graphics/SVG/1.1/DTD/svg11.dtd">
<!-- Creator: CorelDRAW -->
<svg xmlns="http://www.w3.org/2000/svg" xml:space="preserve" width="50mm" height="50mm" version="1.1" style="shape-rendering:geometricPrecision; text-rendering:geometricPrecision; image-rendering:optimizeQuality; fill-rule:evenodd; clip-rule:evenodd"
viewBox="0 0 5000 5000"
 xmlns:xlink="http://www.w3.org/1999/xlink"
 xmlns:xodm="http://www.corel.com/coreldraw/odm/2003">
 <defs>
  <style type="text/css">
   <![CDATA[
    .fil0 {fill:none}
    .fil1 {fill:#FEFEFE}
   ]]>
  </style>
 </defs>
 <g id="Layer_x0020_1">
  <metadata id="CorelCorpID_0Corel-Layer"/>
  <rect class="fil0" x="-7.13" y="0.53" width="5000" height="5000"/>
  <rect class="fil0" x="359.2" y="425.8" width="4200" height="4200"/>
  <path class="fil1" d="M1852.87 1927.67c-123.48,-39.36 -299.71,-216.08 -398.82,-15.8 -94.69,191.33 127.06,252.43 218.68,321.12 6.75,66.23 -36.44,178.84 -36.05,270.75 0.39,90.64 42.9,207.68 36.05,270.77 -96.61,74.51 -316.89,146.39 -222.57,324.99 106.87,202.34 319.42,7.01 402.71,-19.9l207.91 157.53c129.38,82.69 238.89,86.77 258.54,118.97 28.44,46.6 -64,347.47 178.08,347.26 273.89,-0.24 99.81,-310.7 202.34,-364.65 11.1,-5.84 27.27,-11.53 37.26,-14.69 84.38,-26.65 101.73,-28.27 188.52,-82.77 42.24,-26.52 70.48,-42.96 107.66,-72.82 29.96,-24.06 74.39,-68.15 109.03,-88.83 74.19,23.96 311.89,231.4 405.15,9.37 81.9,-194.97 -152.63,-236.77 -231.24,-327.35 9.71,-85.01 42.23,-158.05 41.78,-257.9 -0.38,-85.98 -42.44,-207.35 -35.54,-270.73 99.43,-76.68 309.2,-134.14 218.28,-320.55 -100.69,-206.41 -325.13,-9.81 -398.43,15.75 -56.93,-30.65 -101.48,-91.97 -176.74,-137.39 -266.75,-160.95 -290.86,-76.52 -295.73,-175.98 -3.77,-77 36.53,-311.61 -172.3,-310.44 -94.7,0.54 -155.56,58.7 -169.8,142.43 -32.41,190.55 61.44,203.11 -79.99,239.96 -203.45,53.01 -308.88,184.77 -394.78,240.9zm1843.2 -628.46c-167.16,11.8 -370.03,-13.09 -528.4,5.34 -156.98,18.27 -207.67,209.93 -84.57,304.43 75.74,58.13 378.51,33.36 497.49,33.36 280.08,0.01 610.61,5.46 635.67,-440.58 9.2,-163.68 5.9,-376.58 1.37,-542.18 -2.5,-91.2 -14.89,-142.62 -76.64,-186.18 -55.32,-39.02 -135.39,-46.33 -200.13,5.05 -138.46,109.87 -22.82,321.32 -73.82,467.04 -32.07,10.54 -105.02,-73.12 -204.01,-136.16 -78.98,-50.31 -148.25,-97.92 -230.33,-143.23 -155.4,-85.77 -359.8,-146.08 -549.24,-185.24 -421.83,-87.2 -901.88,-20.15 -1252.5,150.49 -204.24,99.4 -287.06,151.35 -450.24,284.7 -699.09,571.28 -903.25,1638.43 -644.21,1743.72 116.92,47.52 213.14,-25.67 234.78,-116.02 38.3,-159.95 -17.61,-288.64 113.42,-634.23 83.09,-219.17 147.06,-306.4 262.72,-472.02 63.88,-91.48 291.96,-297.49 387.87,-360.13 564.95,-368.97 1406.92,-407.84 1972.68,42.21 64.66,51.43 168.68,108.91 188.09,179.63zm-2397.05 2409.07c167.88,-11.84 368.34,12.71 528.12,-5.08 159.59,-17.77 194.46,-215 83.52,-303.49 -75.76,-60.43 -380.82,-34.56 -496.16,-34.56 -204.96,0 -315.66,-23.26 -460.07,84.1 -105.46,78.4 -165.85,181.44 -175.61,356.41 -9.12,163.57 -5.61,376.51 -1.32,542.15 6.51,252.06 199.94,241.84 276.65,181.01 136.84,-108.5 23.96,-324.1 73.9,-466.81 27.97,-9.1 117.29,81.91 202.83,137.12 263.84,170.28 442.21,261.56 774.35,332.88 450.88,96.8 886.33,-2.91 1256.97,-158.09 141.5,-59.25 367.15,-203.36 451.06,-283.66 188.38,-180.29 179.02,-139.54 360.69,-387.11 194.81,-265.48 365.8,-675.41 384.58,-1095.79 17.05,-381.59 -298.79,-305.55 -335.46,-145.74 -23.36,101.81 -13.49,230.08 -34.83,341.13 -246.8,1284.35 -1699.13,1823.27 -2702.2,1086.31 -60.68,-44.58 -175.67,-121.95 -187.02,-180.78zm1120.97 -1712.4c-705.36,134.61 -482.74,1126.23 160.33,1015.65 253.8,-43.65 470.25,-282.78 423.51,-588.37 -37.77,-246.91 -290.59,-483.25 -583.84,-427.28z"/>
 </g>
</svg>
