<?xml version="1.0" encoding="UTF-8"?>
<!DOCTYPE svg PUBLIC "-//W3C//DTD SVG 1.1//EN" "http://www.w3.org/Graphics/SVG/1.1/DTD/svg11.dtd">
<!-- Creator: CorelDRAW -->
<svg xmlns="http://www.w3.org/2000/svg" xml:space="preserve" width="50mm" height="50mm" version="1.1" style="shape-rendering:geometricPrecision; text-rendering:geometricPrecision; image-rendering:optimizeQuality; fill-rule:evenodd; clip-rule:evenodd"
viewBox="0 0 5000 5000"
 xmlns:xlink="http://www.w3.org/1999/xlink"
 xmlns:xodm="http://www.corel.com/coreldraw/odm/2003">
 <defs>
  <style type="text/css">
   <![CDATA[
    .fil0 {fill:none}
    .fil1 {fill:#FEFEFE}
   ]]>
  </style>
 </defs>
 <g id="Layer_x0020_1">
  <metadata id="CorelCorpID_0Corel-Layer"/>
  <rect class="fil0" x="-7.13" y="0.53" width="5000" height="5000"/>
  <path class="fil1" d="M2340.23 445.91c-518.71,53.78 -827.85,193.55 -1189.55,494.22 -159.18,132.33 -317.39,302.02 -419.34,483.82 -216.79,386.57 -335.94,757.45 -294.72,1239.42 52.57,614.82 303.21,982.14 703.04,1357.43 156.3,146.71 402.42,276.26 650.35,381.49 501.07,212.67 1339.24,171.39 1901.67,162.19 294.68,-4.82 514.95,-126.72 687.51,-344 194.23,-244.56 176.39,-497 176.39,-855.29 0,-962.21 95.93,-1659.99 -701.92,-2394.35 -166.64,-153.38 -374.01,-286.25 -637.76,-393.47 -246.37,-100.17 -592.02,-160.88 -875.67,-131.46zm-33.32 344.78c-596.56,79.28 -1052.07,411.77 -1299.43,844.86 -181.65,318.05 -266.85,667.73 -224.23,1051.57 50.02,450.49 274.37,846.6 610.97,1105.06 676.8,519.69 1286.56,427.33 2142.46,427.67 263.31,0.1 444.79,-4.13 605.29,-262.5 104.7,-168.54 68.78,-561.49 68.78,-785.64 0,-588.86 60.71,-971.71 -223.72,-1494.96 -311.73,-573.47 -1011.33,-974.95 -1680.12,-886.06zm185.07 1710.18c0,157.19 -18.25,1031.21 17.04,1104.75 58.94,122.82 287.93,135.49 323.22,-40.17l0.58 -1109.14c-45.44,-370.16 -630.52,-389.22 -680.39,-166.42 -20.31,90.75 29.67,157.93 79.75,187.44 66.33,39.09 176.4,23.54 259.8,23.54zm-74.14 -1189.3c-335.59,111.32 -166.2,582.49 148.32,490.18 324.78,-95.31 173.27,-596.86 -148.32,-490.18z"/>
  <rect class="fil0" x="359.2" y="425.8" width="4200" height="4200"/>
 </g>
</svg>
