<?xml version="1.0" encoding="UTF-8"?>
<!DOCTYPE svg PUBLIC "-//W3C//DTD SVG 1.1//EN" "http://www.w3.org/Graphics/SVG/1.1/DTD/svg11.dtd">
<!-- Creator: CorelDRAW -->
<svg xmlns="http://www.w3.org/2000/svg" xml:space="preserve" width="50mm" height="50mm" version="1.1" style="shape-rendering:geometricPrecision; text-rendering:geometricPrecision; image-rendering:optimizeQuality; fill-rule:evenodd; clip-rule:evenodd"
viewBox="0 0 5000 5000"
 xmlns:xlink="http://www.w3.org/1999/xlink"
 xmlns:xodm="http://www.corel.com/coreldraw/odm/2003">
 <defs>
  <style type="text/css">
   <![CDATA[
    .fil0 {fill:none}
    .fil1 {fill:#FEFEFE}
   ]]>
  </style>
 </defs>
 <g id="Layer_x0020_1">
  <metadata id="CorelCorpID_0Corel-Layer"/>
  <rect class="fil0" x="-7.13" y="0.53" width="5000" height="5000"/>
  <rect class="fil0" x="359.2" y="425.8" width="4200" height="4200"/>
  <g id="_2492799203280">
   <path class="fil1" d="M2314.21 448.17c-550.12,86.47 -761.36,169.99 -1161.35,483.89 -248.54,195.05 -528.01,580.21 -647.7,1003.47 -129.02,456.28 -94.02,988.89 96.9,1402.13 166.56,360.53 422.71,687.59 756.25,895.55 316.69,197.44 827.06,390.36 1298.94,329.72 540.45,-69.45 958.07,-264.57 1277.41,-578.41 38.31,-37.65 65.97,-64.45 98.93,-107.33 212.89,-277.04 327.05,-405.28 441.53,-797.1 63.39,-216.97 100.69,-497.45 76.79,-738 -19.56,-197.01 -47.35,-603.43 -297.29,-515.54 -108.83,38.28 -119.57,148.97 -88.9,270.89 85.94,341.53 46.01,756.65 -84.8,1065.79 -123.19,291.1 -237.78,420.22 -424.82,607.04 -73.45,73.36 -264.98,205.39 -364.82,254.76 -1413.74,699.2 -2825.49,-563.46 -2456.63,-1978.68 116.38,-446.5 406.71,-767.5 689.01,-963.13 350.86,-243.14 813.07,-352.12 1323.65,-260.11 129.6,23.35 234.26,59.04 305.84,-45.9 75.98,-111.4 -6.69,-232.34 -102.83,-261.35 -183.35,-55.34 -541.38,-98.3 -736.11,-67.69z"/>
   <path class="fil1" d="M2432.58 1315.75c-56.07,23.55 -88.64,43.11 -104.87,108.52 -63.01,253.89 277.89,221.46 389.98,251.1 701.02,185.34 868.18,1133.17 248.92,1547.42 -382.03,255.57 -941.02,145.86 -1187.12,-236.36 -223.5,-347.13 -74.56,-532.93 -227.78,-624.53 -119.82,-71.62 -246.2,7.78 -258.8,116.85 -14.71,127.33 17.48,275.4 52.43,386.77 292.91,933.58 1512.99,1142.81 2111.34,357.09 442.08,-580.53 227.27,-1430.04 -345.36,-1748.99 -125.34,-69.81 -504.38,-231.09 -678.74,-157.87z"/>
   <path class="fil1" d="M3690.84 794.29c-202.08,36.87 -380.96,261.87 -326.45,516.95 113.31,530.22 952.02,393.17 834.9,-191.15 -41.66,-207.84 -247.83,-373.36 -508.45,-325.8z"/>
   <path class="fil1" d="M1737.66 1482.57c-172.25,28.24 -306.19,194.85 -266.84,407.83 30.68,166.04 193.58,298.97 412.15,260.04 396.43,-70.61 327.16,-745.34 -145.31,-667.87z"/>
   <path class="fil1" d="M2406.07 2269.76c-327.96,121.32 -131.92,595.07 173.54,476.12 321.13,-125.05 141.12,-592.51 -173.54,-476.12z"/>
  </g>
 </g>
</svg>
