<?xml version="1.0" encoding="UTF-8"?>
<!DOCTYPE svg PUBLIC "-//W3C//DTD SVG 1.1//EN" "http://www.w3.org/Graphics/SVG/1.1/DTD/svg11.dtd">
<!-- Creator: CorelDRAW -->
<svg xmlns="http://www.w3.org/2000/svg" xml:space="preserve" width="50mm" height="50mm" version="1.1" style="shape-rendering:geometricPrecision; text-rendering:geometricPrecision; image-rendering:optimizeQuality; fill-rule:evenodd; clip-rule:evenodd"
viewBox="0 0 5000 5000"
 xmlns:xlink="http://www.w3.org/1999/xlink"
 xmlns:xodm="http://www.corel.com/coreldraw/odm/2003">
 <defs>
  <style type="text/css">
   <![CDATA[
    .fil0 {fill:none}
    .fil1 {fill:#FEFEFE}
   ]]>
  </style>
 </defs>
 <g id="Layer_x0020_1">
  <metadata id="CorelCorpID_0Corel-Layer"/>
  <rect class="fil0" x="-7.13" y="0.53" width="5000" height="5000"/>
  <rect class="fil0" x="359.2" y="425.8" width="4200" height="4200"/>
  <path class="fil1" d="M1950.23 3378.55c51.55,-7.32 351.74,-0.45 271.81,-237.57 -62.87,-186.47 -285.67,-79.21 -420.52,-124.13 -70.94,-94.37 -83.55,-370.81 -84,-510.76 -0.42,-127.97 21.67,-432.46 86.08,-509.07 43.45,-15.91 1331.18,-17.03 1380.34,-0.66 57.83,42.81 10.24,327.8 218.05,333.38 256.78,6.9 150,-278.69 161.33,-336.89l573.96 -2.95c50.02,79.05 75.84,312.38 80.98,424.89 7.08,155.07 -40.98,368.19 98.83,423.65 74.5,29.56 160.29,0.34 202.05,-46.35 98.39,-110.02 31.04,-549.32 5.94,-678.93 -221.72,-1145 -1335.57,-1868.74 -2409.78,-1647.69 -526.13,108.27 -966.79,368.4 -1280.66,784.31 -302.65,401.05 -494.9,977.47 -388.07,1616.28 115.58,691.16 579.17,1225.08 1084.32,1485.12 112.61,57.96 240.12,105.18 371.45,147.93 177.81,57.87 767.9,148.69 890.75,20.59 102.53,-106.91 18.18,-291.26 -143.74,-287.15 -122.71,3.11 -114.57,-23.22 -174.47,-85.21 -142.51,-147.46 -515.81,-625.59 -524.65,-768.79zm810.6 -857.25c-130.13,40.03 -230.23,114.41 -260.36,265.41 -29.42,147.39 58.65,281.64 109.46,394.89 145.18,323.59 332.2,754.51 487.38,1070.4 56.37,114.75 93.39,276.74 199.75,319.5 166.06,66.76 229.7,-105.58 281.89,-213.78 57.32,-118.82 117.04,-230.85 173.23,-346.19 95.67,-196.36 71,-158.53 264.02,-255.19 118.28,-59.22 229.71,-114.46 346.56,-172.9 106.72,-53.37 263.49,-125.44 187.99,-291.12 -34.59,-75.9 -71.76,-68.49 -154.54,-105.62l-1246.89 -570.66c-110.56,-53.67 -252.25,-136.65 -388.49,-94.74zm-1913.09 498.67l572.65 3.89c14.32,-131.86 -91.9,-280.85 -33.26,-779.45 9.47,-80.58 47.97,-210.86 32,-250.17 -78.78,-17.72 -329.13,-3.9 -431.91,-4.49 -149.61,-0.87 -148.03,-55.64 -202.17,235.97 -34.78,187.37 -24.17,657.28 62.69,794.25zm1101.17 -1384.6l1088.9 2.1c-19.27,-138.49 -483.82,-773.99 -544.48,-773.94 -57.01,0.04 -524.03,622.77 -544.42,771.84zm1414.36 2344.38c75.15,-41.88 149.46,-312.41 220.11,-383.5 63.31,-63.71 357.57,-152.04 385.98,-220.23 -29.36,-26.77 -1044.23,-491.94 -1116.58,-509.61 16.25,72.7 204.3,467.27 249.3,563.19 25.24,53.78 223.92,512.78 261.19,550.15zm-2352.86 -2341.09c98.12,2.85 470.37,11.28 543.04,-7.91 34.46,-56.42 68.42,-146.28 101.06,-210.16 147.94,-289.57 243.01,-368.41 371.67,-575.13 -185.64,18.57 -478.1,204.19 -597.94,296.55 -95.35,73.49 -384.55,351.88 -417.83,496.65zm2421.63 -6.47l544.41 7.45c-27.61,-128.07 -293.06,-400.55 -409.55,-492.72 -108.22,-85.61 -429.27,-285.51 -606.44,-301.36 126.17,179.64 257.89,362.65 366.11,567.47 36.04,68.22 66.65,154.65 105.47,219.16zm-1404.2 2536.05c-39.07,-63.61 -88.31,-119.68 -131.06,-182.79 -88.32,-130.4 -165.48,-244.44 -238.03,-385 -28.42,-55.05 -75.3,-176.59 -105.91,-218.31l-541.31 -8.22c22.3,129.6 322.54,426.8 407.28,492.57 121.39,94.2 414.86,275.41 609.03,301.75z"/>
 </g>
</svg>
