<?xml version="1.0" standalone="no"?>
<!DOCTYPE svg PUBLIC "-//W3C//DTD SVG 1.1//EN" "http://www.w3.org/Graphics/SVG/1.1/DTD/svg11.dtd" >
<svg xmlns="http://www.w3.org/2000/svg">
<metadata>Generated by IcoMoon</metadata>
<defs>
<font id="sirpdboy" horiz-adv-x="1024">
<font-face units-per-em="1024" ascent="960" descent="-64" />
<missing-glyph horiz-adv-x="1024" />
<glyph unicode="&#x20;" horiz-adv-x="512" d="" />
<glyph unicode="&#xe20a;" glyph-name="cheveron-up" d="M568.674 697.28l-56.674 56.674-453.482-453.482 113.353-113.353 340.134 340.054 340.134-340.054 113.353 113.353z" />
<glyph unicode="&#xe20b;" glyph-name="cheveron-down" d="M455.326 224.32l56.674-56.674 453.482 453.482-113.353 113.353-340.134-340.054-340.134 340.054-113.353-113.353z" />
<glyph unicode="&#xe20e;" glyph-name="menu" d="M64 768h896v-192h-896zM64 512h896v-192h-896zM64 256h896v-192h-896z" />
<glyph unicode="&#xe603;" glyph-name="spinner2" d="M512 960c-278.748 0-505.458-222.762-511.848-499.974 5.92 241.864 189.832 435.974 415.848 435.974 229.75 0 416-200.576 416-448 0-53.020 42.98-96 96-96s96 42.98 96 96c0 282.77-229.23 512-512 512zM512-64c278.748 0 505.458 222.762 511.848 499.974-5.92-241.864-189.832-435.974-415.848-435.974-229.75 0-416 200.576-416 448 0 53.020-42.98 96-96 96s-96-42.98-96-96c0-282.77 229.23-512 512-512z" />
<glyph unicode="&#xe900;" glyph-name="vpn" d="M76.8 187.733h-76.8v-256h256v76.8h-179.2zM981.333 955.733h-381.013c-0.080 0-0.174 0-0.268 0-29.476 0-55.461-14.945-70.792-37.671l-0.193-0.303-145.067-217.6h-341.333c-23.564 0-42.667-19.103-42.667-42.667v0-234.667l149.333-154.027 51.2 55.040 64-64-51.2-52.053 63.147-63.147 52.053 52.053 64-64.427-51.2-51.2 149.333-149.333h234.667c23.564 0 42.667 19.103 42.667 42.667v0 341.333l218.027 145.067c23.030 15.523 37.976 41.509 37.976 70.986 0 0.244-0.001 0.487-0.003 0.731v-0.037 380.587c0 23.564-19.103 42.667-42.667 42.667v0zM768 571.733c-70.692 0-128 57.308-128 128s57.308 128 128 128v0c70.692 0 128-57.308 128-128s-57.308-128-128-128v0z" />
<glyph unicode="&#xe901;" glyph-name="info" d="M192 635.733c35.328 0 64-28.672 64-64v-448c0-35.328-28.672-64-64-64h-128c-35.285 0-64 28.672-64 64v448c0 35.328 28.715 64 64 64zM576 827.733c35.328 0 64-28.672 64-64v-640c0-35.328-28.672-64-64-64h-128c-35.285 0-64 28.672-64 64v640c0 35.328 28.715 64 64 64zM960 507.733c35.328 0 64-28.672 64-64v-320c0-35.328-28.672-64-64-64h-128c-35.328 0-64 28.672-64 64v320c0 35.328 28.672 64 64 64z" />
<glyph unicode="&#xe902;" glyph-name="docker" d="M205.653 218.666c-29.184 0-55.637 23.893-55.637 52.907s23.893 53.035 55.68 53.035c31.915 0 55.893-23.893 55.893-52.992s-26.539-52.907-55.936-52.949zM888.832 507.221c-5.76 42.325-32 76.8-66.56 103.253l-13.44 10.667-10.837-13.227c-21.077-23.893-29.44-66.261-26.88-97.92 2.56-23.979 10.24-47.787 23.637-66.304-10.837-5.547-24.235-10.667-34.56-16.085-24.32-7.979-47.957-10.667-71.68-10.667h-684.373l-2.56-15.787c-5.12-50.432 2.56-103.253 23.979-151.040l10.411-18.56v-2.56c64-105.941 177.92-153.6 301.995-153.6 238.677 0 434.432 103.253 527.232 325.675 60.8-2.645 122.197 13.227 151.040 71.509l7.68 13.227-12.8 7.979c-34.56 21.077-81.92 23.893-121.6 13.227zM547.157 549.546h-103.595v-103.253h103.68v103.339zM547.157 679.381h-103.595v-103.253h103.68v103.125zM547.157 811.818h-103.595v-103.253h103.68v103.253zM673.877 549.546h-102.997v-103.253h103.253v103.339zM289.963 549.546h-102.955v-103.253h103.339v103.339zM419.243 549.546h-102.4v-103.253h102.997v103.339zM161.963 549.546h-102.229v-103.253h103.595v103.339zM419.243 679.381h-102.4v-103.253h102.997v103.125zM289.323 679.381h-102.144v-103.253h102.955v103.125z" />
<glyph unicode="&#xe903;" glyph-name="spinner" d="M384 832c0 70.692 57.308 128 128 128s128-57.308 128-128c0-70.692-57.308-128-128-128s-128 57.308-128 128zM655.53 719.53c0 70.692 57.308 128 128 128s128-57.308 128-128c0-70.692-57.308-128-128-128s-128 57.308-128 128zM832 448c0 35.346 28.654 64 64 64s64-28.654 64-64c0-35.346-28.654-64-64-64s-64 28.654-64 64zM719.53 176.47c0 35.346 28.654 64 64 64s64-28.654 64-64c0-35.346-28.654-64-64-64s-64 28.654-64 64zM448.002 64c0 0 0 0 0 0 0 35.346 28.654 64 64 64s64-28.654 64-64c0 0 0 0 0 0 0-35.346-28.654-64-64-64s-64 28.654-64 64zM176.472 176.47c0 0 0 0 0 0 0 35.346 28.654 64 64 64s64-28.654 64-64c0 0 0 0 0 0 0-35.346-28.654-64-64-64s-64 28.654-64 64zM144.472 719.53c0 0 0 0 0 0 0 53.019 42.981 96 96 96s96-42.981 96-96c0 0 0 0 0 0 0-53.019-42.981-96-96-96s-96 42.981-96 96zM56 448c0 39.765 32.235 72 72 72s72-32.235 72-72c0-39.765-32.235-72-72-72s-72 32.235-72 72z" />
<glyph unicode="&#xe904;" glyph-name="service" d="M981.291 502.357c-1.835 17.28-4.523 37.248-9.984 59.051s-14.549 45.44-26.368 70.869c-12.715 24.533-28.16 50.901-49.067 75.435-8.192 9.984-17.28 19.072-26.368 29.056 14.549 57.259-17.28 107.221-17.28 107.221-55.424 3.627-89.941-17.28-102.656-26.368-1.835 0.896-4.523 1.835-6.357 2.731-9.088 3.627-19.072 7.253-29.056 10.923-9.984 2.731-20.011 6.357-29.995 8.192-9.984 2.731-20.907 4.523-31.787 6.357-1.835 0-3.627 0.896-5.461 0.896-23.637 76.331-92.672 109.013-92.672 109.013-79.061-50.901-94.507-119.040-94.507-119.040s0-1.835-0.896-3.627c-4.523-0.896-8.192-2.731-12.715-3.627-5.461-1.835-11.819-3.627-17.28-6.357s-11.819-4.523-17.28-7.253c-11.819-5.461-22.699-10.923-34.517-17.28-12.52-7.032-22.901-13.652-32.906-20.767l1.12 0.756c-1.835 0.896-2.731 1.835-2.731 1.835-106.325 40.875-200.789-8.192-200.789-8.192-8.192-113.579 42.709-184.448 52.693-197.163-2.731-7.253-4.523-13.611-7.253-20.907-7.389-22.518-13.442-49.257-17.035-76.768l-0.245-2.293c-0.896-3.627-0.896-8.192-1.835-11.819-98.133-48.171-127.189-148.096-127.189-148.096 81.792-94.507 178.091-99.968 178.091-99.968 13.047-23.467 26.89-43.679 42.377-62.487l-0.564 0.705c6.357-8.192 13.611-15.445 20.907-23.637-29.995-85.419 4.523-157.184 4.523-157.184 91.776-3.627 151.723 39.979 164.437 49.963l27.264-8.192c28.16-7.253 57.259-11.819 85.419-12.715h37.248c42.709-61.781 119.040-69.973 119.040-69.973 53.589 57.259 57.259 112.683 57.259 125.397v5.461c10.923 8.192 21.803 16.341 32.725 25.429 21.803 19.072 39.979 41.813 56.32 65.408 1.835 1.835 2.731 4.523 4.523 6.357 60.885-3.627 103.595 38.144 103.595 38.144-9.984 63.616-46.336 94.507-53.589 99.968l-2.688 2.688c0 3.627 0.896 7.253 0.896 11.819 0.896 7.253 0.896 13.611 0.896 20.907v26.368c0 1.835 0 3.627-0.896 5.461l-1.835 10.923c-0.896 7.253-2.731 13.611-3.627 20.907-6.928 28.896-17.554 54.356-31.568 77.538l0.678-1.208c-14.775 23.614-31.918 43.932-51.535 61.55l-0.262 0.231c-18.746 16.632-40.326 30.655-63.816 41.176l-1.592 0.637c-20.905 9.974-45.178 17.045-70.724 19.916l-1.042 0.095c-11.819 1.835-24.533 1.835-36.352 1.835h-18.176c-6.357-0.896-12.715-1.835-18.176-2.731-24.533-4.523-47.232-13.611-67.243-25.429s-37.248-27.264-51.797-44.501c-13.592-15.729-24.665-34.102-32.306-54.169l-0.42-1.255c-7.253-19.072-11.819-39.979-12.715-59.051v-21.803c0-2.731 0-4.523 0.896-7.253 3.044-29.364 13.84-55.737 30.283-77.627l-0.288 0.4c10.923-14.549 22.699-25.429 36.352-34.517 13.611-9.088 27.264-15.445 41.813-20.011s28.16-6.357 40.875-5.461h19.029c1.835 0 3.627 0.896 4.523 0.896 1.835 0 2.731 0.896 4.523 0.896 2.731 0.896 6.357 1.835 9.088 2.731 5.461 1.835 10.923 4.523 16.341 6.357 5.461 2.731 9.984 5.461 13.611 8.192 0.896 0.896 2.731 1.835 3.627 2.731 2.481 1.889 4.065 4.844 4.065 8.169 0 2.422-0.841 4.647-2.246 6.401l0.016-0.020c-2.292 2.248-5.434 3.635-8.901 3.635-1.696 0-3.315-0.332-4.795-0.935l0.085 0.031c-0.896-0.896-1.835-0.896-3.627-1.835-3.364-1.752-7.291-3.296-11.39-4.422l-0.428-0.1c-4.523-0.896-9.088-2.731-13.611-3.627-2.731 0-4.523-0.896-7.253-0.896h-15.403c0 0-0.896 0 0 0h-3.669c-0.939 0-2.731 0-3.627 0.896-9.984 1.835-20.907 4.523-30.891 9.088s-20.011 10.923-28.16 19.072c-9.088 8.192-16.341 17.28-22.699 28.16s-9.984 22.699-11.819 34.517c-0.896 6.357-1.835 12.715-0.896 19.072v5.461c0-0.896 0 0 0 0v4.565c0 3.627 0.896 6.357 1.835 9.984 5.105 29.17 19.096 54.441 39.036 73.555l0.047 0.045c5.461 5.461 10.923 9.984 17.28 13.611 6.357 4.523 12.715 8.192 19.072 10.923s13.611 5.461 20.907 7.253c7.253 1.835 14.549 3.627 21.803 3.627 3.627 0 7.253 0.896 10.923 0.896h7.253c0.896 0 0 0 0 0h3.627c25.649-2.198 49.131-9.682 69.947-21.355l-0.87 0.448c29.056-16.341 53.589-40.875 68.139-70.869 7.253-14.549 12.715-30.891 15.445-48.171 0.896-4.523 0.896-8.192 1.835-12.715v-23.637c0-4.523-0.896-9.088-0.896-13.611-0.896-4.523-0.896-9.088-1.835-13.611l-2.731-13.611c-0.896-4.523-5.461-17.28-8.192-26.368s-15.445-33.621-26.368-48.171c-22.055-29.939-50.783-53.717-84.075-69.404l-1.344-0.569c-17.28-7.253-34.517-13.611-52.693-16.341-8.195-1.736-17.611-2.731-27.26-2.731-0.002 0-0.003 0-0.005 0h-13.61c0.896 0 0 0 0 0h-0.896c-4.523 0-9.984 0-14.549 0.896-20.011 1.835-39.083 5.461-58.155 10.923s-37.248 12.715-54.528 21.803c-35.424 19.3-65.29 44.239-89.516 73.958l-0.425 0.538c-11.819 15.445-22.699 31.787-31.787 49.067s-15.445 35.456-20.907 53.589c-5.029 16.68-8.295 35.959-9.074 55.876l-0.014 0.444v28.16c0 9.088 0.896 19.072 2.731 29.056 0.896 9.984 2.731 19.072 4.523 29.056s4.523 19.072 7.253 29.056 11.819 37.248 20.011 54.528c16.341 34.517 37.248 65.408 61.781 89.941 6.357 6.357 12.715 11.819 20.011 17.28 2.731 2.731 9.088 8.192 16.341 12.715s14.549 9.088 22.699 12.715c3.627 1.835 7.253 3.627 11.819 5.461 1.835 0.896 3.627 1.835 6.357 2.731 1.835 0.896 3.627 1.835 6.357 2.731 8.192 3.627 16.341 6.357 24.533 9.088 1.835 0.896 4.523 0.896 6.357 1.835s4.523 0.896 6.357 1.835 8.192 1.835 12.715 3.627c1.835 0.896 4.523 0.896 6.357 1.835 1.835 0 4.523 0.896 6.357 0.896s4.523 0.896 6.357 0.896l7.253 1.835c1.835 0 4.523 0.896 6.357 0.896 2.731 0 4.523 0.896 7.253 0.896 1.835 0 5.461 0.896 7.253 0.896s2.731 0 4.523 0.896h6.357c2.731 0 4.523 0 7.253 0.896h3.627c0 0 0.896 0 0 0h33.621c16.341-0.896 32.725-2.731 48.171-5.461 32.723-5.799 61.986-15.906 88.93-29.866l-1.719 0.81c27.028-13.185 50.32-28.634 71.298-46.697l-0.429 0.361c0.896-0.896 2.731-1.835 3.627-3.627 0.896-0.896 2.731-1.835 3.627-3.627 2.731-1.835 4.523-4.523 7.253-6.357s4.523-4.523 7.253-6.357c1.835-2.731 4.523-4.523 6.357-7.253 23.59-24.204 43.61-52.043 59.108-82.566l0.882-1.914c0.896-0.896 0.896-1.835 1.835-3.627 0.896-0.896 0.896-1.835 1.835-3.627s1.835-4.523 3.627-6.357c0.896-1.835 1.835-4.523 2.731-6.357s1.835-4.523 2.731-6.357c3.627-8.192 6.357-16.341 9.088-24.533 4.523-12.715 7.253-23.637 9.984-32.725 1.041-3.637 4.298-6.269 8.182-6.357h0.010c4.523 0 7.253 3.627 7.253 8.192-0.896 10.923-0.896 22.699-1.749 36.352z" />
<glyph unicode="&#xe905;" glyph-name="nas" d="M929.877 315.648c3.2 2.432 7.723 0.299 8.277-3.541 0.256-2.432 0.512-4.864 0.512-7.296 0-67.669-142.123-159.744-426.667-159.744s-426.667 92.075-426.667 159.445c0 2.432 0.256 4.907 0.555 7.083 0.284 2.584 2.455 4.577 5.091 4.577 1.19 0 2.285-0.406 3.155-1.087l-0.011 0.008c70.656-50.773 209.877-94.251 417.877-94.251 208.256 0 347.477 43.477 417.877 94.805zM512 351.232c-230.656 0-383.488 52.437-458.155 113.024-0.895 0.748-2.059 1.203-3.328 1.203-2.022 0-3.775-1.153-4.637-2.838l-0.014-0.029c-4.011-7.595-5.845-15.744-5.845-23.893 0-74.667 157.312-174.379 471.979-174.379s472.021 99.413 472.021 174.379c0 8.448-1.877 16.299-5.888 23.893-0.871 1.728-2.631 2.892-4.663 2.892-1.283 0-2.458-0.464-3.366-1.234l0.008 0.006c-74.667-60.587-227.413-113.024-458.112-113.024zM1024 595.712c0-86.101-170.667-201.003-512-201.003s-512 114.901-512 201.003 170.667 146.688 512 146.688 512-60.587 512-146.688zM874.667 609.28c0 43.221-120.789 67.925-362.667 67.925s-362.667-24.747-362.667-67.925 120.789-105.941 362.667-105.941 362.667 62.763 362.667 105.941z" />
<glyph unicode="&#xe906;" glyph-name="home" d="M511.667 896.234c-8.325-0.056-15.837-3.49-21.243-8.998l-0.005-0.005-483.503-490.334c-4.276-4.337-6.916-10.296-6.916-16.872 0-0.013 0-0.026 0-0.038v0.002c0.015-13.341 10.826-24.152 24.165-24.166h89.755v-344.503c0-11.106 8.977-20.083 20.083-20.083h339.085v157.167l-130.176 130.33c-11.923-5.211-25.816-8.245-40.417-8.247h-0.001c-57.084 0-103.33 46.37-103.33 103.497 0 57.131 46.251 103.42 103.33 103.42 57.088 0 103.339-46.293 103.339-103.42 0-14.332-2.901-28.002-8.171-40.414l75.418-75.418v229.333c-37.879 15.343-64.661 52.506-64.661 95.915 0 57.131 46.332 103.501 103.415 103.501 57.088 0 103.334-46.37 103.334-103.501 0-43.409-26.705-80.572-64.585-95.915v-229.333l75.332 75.418c-5.163 11.878-8.167 25.713-8.167 40.25 0 0.057 0 0.115 0 0.172v-0.009c0 57.131 46.336 103.42 103.415 103.42 57.088 0 103.339-46.293 103.339-103.42s-46.251-103.497-103.339-103.497c-14.601 0.003-28.492 3.037-41.081 8.506l0.667-0.258-130.167-130.334v-157.167h339.085c0.006 0 0.014 0 0.021 0 11.080 0 20.062 8.982 20.062 20.062 0 0.007 0 0.015 0 0.022v-0.001 344.503h90.082c6.587 0.012 12.557 2.647 16.922 6.916l-0.004-0.004c9.527 9.323 9.651 24.64 0.333 34.167l-107.332 109.751v173.001c0 11.106-8.977 20.169-20.083 20.169h-83.836c-11.106 0-20.083-9.062-20.083-20.169v-47.083l-252.416 254.75c-5.458 5.508-13.025 8.919-21.388 8.919-0.098 0-0.195 0-0.293-0.001h0.015zM511.834 624.815c-22.835 0-41.335-18.564-41.335-41.417 0-22.848 18.5-41.331 41.335-41.331 0.005 0 0.011 0 0.017 0 22.817 0 41.314 18.497 41.314 41.314 0 0.006 0 0.012 0 0.018v-0.001c0 22.852-18.496 41.417-41.331 41.417zM302.498 415.317c-0.005 0-0.011 0-0.017 0-22.817 0-41.314-18.497-41.314-41.314 0-0.008 0-0.015 0-0.023v0.001c0-22.848 18.5-41.417 41.331-41.417 22.835 0 41.335 18.569 41.335 41.417 0 0.006 0 0.014 0 0.021 0 22.817-18.497 41.314-41.314 41.314-0.008 0-0.015 0-0.023 0h0.001zM721.165 415.317c-22.831 0-41.417-18.483-41.417-41.335 0-22.848 18.586-41.417 41.417-41.417 22.835 0 41.335 18.569 41.335 41.417 0 0.006 0 0.014 0 0.021 0 22.817-18.497 41.314-41.314 41.314-0.008 0-0.015 0-0.023 0h0.001z" />
<glyph unicode="&#xe907;" glyph-name="exit" d="M768 320v128h-320v128h320v128l192-192zM704 384v-256h-320v-192l-384 192v832h704v-320h-64v256h-512l256-128v-576h256v192z" />
<glyph unicode="&#xe908;" glyph-name="network" d="M309.205-4.224c63.488-28.203 130.475-45.867 204.544-45.867s144.64 17.664 204.587 45.867c-66.987 45.867-137.557 102.272-204.587 162.261-66.987-59.989-137.557-116.395-204.544-162.261zM937.045 193.322c42.115 71.831 66.987 158.189 66.987 250.356 0 0.019 0 0.039 0 0.058v-0.003c0 74.069-17.621 144.64-45.824 204.587-74.069-109.355-179.883-232.789-299.819-352.725-24.704-24.704-52.907-52.907-81.152-77.611-10.581 10.581-21.163 21.163-35.243 31.744 29.047 25.578 55.539 52.083 80.268 80.177l0.841 0.975c130.517 130.475 239.872 260.992 310.4 370.347 81.109 123.435 102.272 201.045 66.987 239.829-3.499 7.083-21.12 14.123-38.784 14.123-42.325 0-112.853-31.744-197.547-88.192-74.027 42.325-158.72 70.571-250.411 70.571-91.733 0-176.341-24.704-250.453-70.571-84.565 56.448-155.136 88.192-197.461 88.192-21.205 0-35.285-7.040-45.867-17.621-84.651-84.651 179.883-412.757 377.387-610.219 232.789-232.789 465.621-395.051 564.352-395.051 21.163 0 35.285 7.040 45.867 17.621 35.285 35.285 14.080 116.395-66.987 239.872zM961.707 909.312c3.541 0 10.581 0 14.123-3.499 10.581-10.581 7.040-56.448-63.488-169.301-28.203 38.784-63.488 77.568-105.813 105.813 70.528 42.325 123.435 66.987 155.179 66.987zM115.2 736.512c-59.989 95.232-77.653 155.179-63.488 169.301 3.499 3.499 10.581 3.499 14.080 3.499 31.744 0 84.651-24.661 155.221-66.987-39.056-32.089-73.725-66.758-104.777-104.515l-1.036-1.298zM975.787-18.347c-3.541-3.499-10.581-3.499-14.080-3.499-31.787 0-84.693 24.661-155.221 66.987 38.827 28.245 77.611 63.488 105.813 105.813 70.528-112.853 74.069-158.72 63.488-169.301zM457.301 210.944c-31.744 28.203-63.488 56.448-91.733 88.192-116.395 116.395-229.248 246.869-299.819 352.683-28.16-63.445-45.781-134.016-45.781-204.544 0-91.733 24.661-176.384 66.987-250.453l-3.499-3.499c-81.152-123.477-102.315-201.088-67.029-239.872 10.581-10.581 28.203-17.621 45.867-17.621 77.568 0 236.331 98.731 412.672 253.952-6.475 6.307-12.289 13.232-17.366 20.698l-0.298 0.465zM65.749-21.846c-3.499 0-10.581 0-14.080 3.499-10.581 10.581-7.083 56.448 63.488 169.301 28.203-38.784 63.488-74.069 105.813-105.813-70.571-42.325-123.477-66.987-155.221-66.987z" />
<glyph unicode="&#xe909;" glyph-name="user" d="M512.085 955.733c0.982 0.014 2.141 0.021 3.302 0.021 141.102 0 255.488-114.386 255.488-255.488s-114.386-255.488-255.488-255.488c-1.161 0-2.32 0.008-3.477 0.023l0.176-0.002c-139.675 1.863-252.186 115.525-252.186 255.467s112.511 253.604 252.011 255.465l0.176 0.002zM926.933 399.957h-1.28l-193.152 95.659c-3.669 1.833-7.993 2.906-12.567 2.906-10.552 0-19.77-5.708-24.735-14.205l-0.073-0.136c-51.578-85.467-112.505-158.764-182.822-221.798l-0.901-0.794c-70.847 63.653-131.487 136.704-180.471 217.601l-2.398 4.266c-5.034 8.651-14.263 14.374-24.828 14.374-4.567 0-8.884-1.069-12.715-2.971l0.167 0.075-193.493-94.976h-1.28c-8.513-5.066-14.127-14.22-14.127-24.685 0-5.063 1.314-9.819 3.62-13.946l-0.074 0.145c56.225-96.272 120.534-179.367 194.158-253.166l-0.024 0.024-0.085-0.043c1.024-1.067 2.133-2.048 3.2-3.072 14.293-14.293 28.843-28.331 43.819-41.856 3.456-3.157 7.040-6.144 10.539-9.259 13.44-11.861 26.965-23.68 40.96-34.987 6.144-4.992 12.587-9.685 18.816-14.549 11.819-9.216 23.552-18.517 35.712-27.264 18.773-13.568 37.888-26.667 57.429-39.125 6.247-4.035 13.881-6.433 22.074-6.433 7.706 0 14.916 2.121 21.078 5.811l-0.187-0.104c20.779 13.312 41.045 27.307 60.928 41.813 2.901 2.133 5.632 4.395 8.533 6.528 15.275 11.349 30.421 22.912 45.227 34.987 9.984 8.107 19.627 16.64 29.355 25.088 7.253 6.272 14.507 12.416 21.589 18.859 12.587 11.435 24.747 23.253 36.864 35.2 2.603 2.56 5.419 5.035 8.021 7.637l-0.171 0.085c73.875 73.956 138.399 157.278 191.63 248.026l3.144 5.798c2.101 3.885 3.335 8.503 3.335 13.411 0 10.742-5.916 20.102-14.668 25l-0.145 0.074z" />
<glyph unicode="&#xe90a;" glyph-name="cheveron-right" d="M501.049 75.733h-213.532l235.5 368-235.494 368h213.532l235.428-368-235.428-368z" />
<glyph unicode="&#xe90b;" glyph-name="system" d="M932.864 731.050c1.45 0.294 3.116 0.462 4.822 0.462 8.824 0 16.597-4.502 21.146-11.334l0.058-0.093c0 0 19.925-32.427 31.744-58.24 11.733-25.771 23.125-61.995 23.125-61.995 0.594-2.041 0.936-4.386 0.936-6.811 0-8.106-3.818-15.319-9.754-19.941l-0.057-0.042-64.213-45.781c-7.461-5.968-12.198-15.072-12.198-25.282 0-0.803 0.029-1.598 0.087-2.386l-0.006 0.105c0 0 3.584-24.448 4.096-45.483 0.427-20.693-1.707-44.587-1.707-44.587-0.004-0.193-0.007-0.42-0.007-0.648 0-10.746 5.283-20.258 13.393-26.081l0.096-0.066 66.603-42.368c8.192-5.205 12.8-16.981 10.24-26.368 0 0-9.472-36.779-19.925-63.147-10.325-26.453-28.501-59.733-28.501-59.733-4.465-7.531-12.552-12.501-21.8-12.501-1.265 0-2.509 0.093-3.724 0.273l0.138-0.017-77.611 14.379c-1.225 0.164-2.641 0.258-4.079 0.258-9.543 0-18.123-4.122-24.056-10.683l-0.025-0.028c0 0-16.256-20.864-32.171-36.736-17.664-17.707-42.539-36.565-42.539-36.565-6.788-5.973-11.048-14.68-11.048-24.381 0-1.301 0.077-2.585 0.226-3.846l-0.015 0.153 13.056-77.824c0.125-0.943 0.196-2.032 0.196-3.139 0-9.414-5.15-17.625-12.786-21.969l-0.125-0.065c0 0-33.707-17.579-60.331-27.52-26.581-9.941-63.488-18.773-63.488-18.773-1.513-0.322-3.251-0.506-5.032-0.506-8.714 0-16.398 4.413-20.938 11.126l-0.057 0.089-41.259 67.243c-5.894 8.499-15.6 13.995-26.589 13.995-0.012 0-0.025 0-0.037 0h0.002c0 0-21.163-1.707-40.491-1.067-19.883 0.64-42.069 3.84-42.069 3.84-0.729 0.059-1.578 0.092-2.435 0.092-10.139 0-19.182-4.69-25.079-12.019l-0.048-0.062-45.909-64.256c-4.673-5.969-11.879-9.769-19.973-9.769-2.429 0-4.777 0.342-7.001 0.981l0.179-0.044c0 0-36.267 11.392-62.123 23.168-25.813 11.776-58.112 31.573-58.112 31.573-6.91 4.582-11.404 12.326-11.404 21.12 0 1.736 0.175 3.432 0.509 5.069l-0.028-0.162 16.427 68.224c3.413 14.123 14.421 33.963 24.704 44.245l169.813 170.368c21.963-12.316 48.2-19.57 76.131-19.57 87.187 0 157.867 70.679 157.867 157.867 0 27.92-7.248 54.148-19.965 76.903l0.41-0.8 170.155 170.197c10.283 10.24 30.080 21.333 44.203 24.704zM91.051 156.458c-1.45-0.294-3.116-0.462-4.822-0.462-8.824 0-16.597 4.502-21.146 11.334l-0.058 0.093c0 0-19.925 32.341-31.701 58.197-11.776 25.813-23.168 61.995-23.168 61.995-0.599 2.049-0.943 4.403-0.943 6.838 0 8.090 3.803 15.292 9.719 19.915l0.056 0.042 64.256 45.781c7.437 5.969 12.158 15.058 12.158 25.25 0 0.814-0.030 1.621-0.089 2.42l0.006-0.107c0 0-3.499 24.448-4.053 45.483-0.427 20.693 1.707 44.629 1.707 44.629 0.004 0.193 0.007 0.42 0.007 0.648 0 10.746-5.283 20.258-13.393 26.081l-0.096 0.066-66.56 42.325c-6.621 4.619-10.899 12.2-10.899 20.78 0 1.966 0.225 3.879 0.649 5.716l-0.033-0.17c0 0 9.515 36.821 19.883 63.275 10.411 26.325 28.587 59.733 28.587 59.733 4.471 7.506 12.544 12.456 21.774 12.456 1.259 0 2.497-0.092 3.707-0.27l-0.137 0.017 77.611-14.379c1.247-0.17 2.688-0.267 4.151-0.267 9.527 0 18.094 4.108 24.027 10.65l0.024 0.027c0 0 16.213 20.864 32.128 36.779 17.664 17.664 42.539 36.48 42.539 36.48 6.793 5.974 11.057 14.684 11.057 24.389 0 1.329-0.080 2.639-0.235 3.926l0.015-0.155-13.056 77.739c-0.128 0.955-0.201 2.058-0.201 3.179 0 9.416 5.152 17.628 12.791 21.972l0.125 0.065c0 0 33.707 17.579 60.331 27.605 26.581 9.856 63.488 18.688 63.488 18.688 1.543 0.335 3.315 0.527 5.132 0.527 8.705 0 16.382-4.404 20.924-11.105l0.057-0.089 41.216-67.328c5.899-8.45 15.577-13.909 26.53-13.909 0.033 0 0.066 0 0.099 0h-0.005c0 0 21.163 1.664 40.491 1.024 19.883-0.64 42.069-3.883 42.069-3.883 0.71-0.056 1.537-0.088 2.371-0.088 10.175 0 19.247 4.724 25.142 12.098l0.050 0.064 45.867 64.213c4.673 5.989 11.891 9.804 20 9.804 2.419 0 4.758-0.339 6.973-0.973l-0.178 0.044c0 0 36.267-11.435 62.123-23.211 25.813-11.733 58.112-31.573 58.112-31.573 6.908-4.591 11.399-12.341 11.399-21.14 0-1.729-0.173-3.418-0.504-5.049l0.027 0.162-16.427-68.224c-4.996-17.185-13.498-32.009-24.737-44.286l0.075 0.083-169.856-170.411c-21.971 12.328-48.22 19.588-76.164 19.588-87.187 0-157.867-70.679-157.867-157.867 0-27.945 7.261-54.194 19.999-76.963l-0.41 0.799-170.155-170.112c-10.24-10.325-30.080-21.333-44.203-24.747z" />
<glyph unicode="&#xe90c;" glyph-name="pasword" d="M126.637 461.525h54.355v162.989c0 0.040 0 0.082 0 0.128 0 182.857 148.235 331.091 331.091 331.091 0.046 0 0.088 0 0.134 0h-0.006c0.023 0 0.056 0 0.083 0 182.857 0 331.091-148.235 331.091-331.091 0-0.046 0-0.088 0-0.134v0.006-161.408c-0.768-0.429-1.581-1.197-2.387-1.581l-0.429-0.429-0.339-0.384h-0.429l-0.813-0.813h-1.197l-0.768-0.768h-0.851l-0.768-0.429h-0.429l-0.384-0.429-0.384-0.384h-0.429l-0.384-0.384-0.384-0.429-0.429-0.384-0.384-0.384-1.197-0.813-0.813-0.429-1.197-0.768-0.768-0.429-0.851-0.384-1.152-0.768-0.813-0.429-0.429-0.384-1.152-0.813-0.851-0.429-1.965-1.152-0.813-0.429-1.619-0.813h-0.339l-2.432-1.152h-0.813c-0.768-0.429-1.581-0.851-2.771-1.619h-0.429l-0.384-0.429-1.197-0.768-0.768-0.429-1.235-0.768-0.768-0.429h-0.429l-1.197-0.768-0.768-0.429-0.851-0.384c-0.768-0.429-1.965-0.813-2.771-1.197l-0.768-0.429-0.851-0.384-1.581-0.768-1.581-0.851-2.003-0.768-2.003-0.813-0.813-0.384-1.581-0.813-0.813-0.429c-65.92-31.533-171.392-64.685-371.539-79.059-143.443-10.413-230.528-73.517-286.893-149.421zM333.229 461.525h357.165v162.989c0 0.023 0 0.056 0 0.083 0 98.59-79.926 178.515-178.515 178.515-0.028 0-0.060 0-0.088 0h0.005c-0.012 0-0.026 0-0.045 0-98.59 0-178.515-79.926-178.515-178.515 0-0.028 0-0.060 0-0.088v0.005zM897.363 399.189v-467.456h-659.629c72.704 40.365 126.637 36.352 216.531 33.581 122.24-4.013 257.28 47.149 323.629 115.027 66.304 67.923-5.971 16-81.107-3.155-75.091-19.2-220.589-21.203-318.035 4.397 306.048-4.013 425.517 94.675 493.011 183.763 67.539 88.704-29.139 15.571-91.859-15.187-62.72-30.72-172.205-52.352-292.864-36.352 182.189 0.429 320.851 91.475 410.323 185.389z" />
<glyph unicode="&#xe90d;" glyph-name="password2" d="M776.405-68.267h-528.768c-22.639 0.073-40.973 18.406-41.045 41.038v391.175c0 22.571 18.475 41.045 41.045 41.045h49.664v63.232c0 118.4 96.341 214.699 214.699 214.699s214.699-96.341 214.699-214.699v-63.232h49.664c22.571 0 41.045-18.475 41.045-41.045v-391.168c-0.072-22.625-18.381-40.949-40.993-41.045h-0.009zM538.795 148.138c16.643 9.505 27.679 27.144 27.679 47.36 0 30.021-24.337 54.357-54.357 54.357-0.041 0-0.082 0-0.123 0h0.006c-30.024-0.026-54.354-24.372-54.354-54.4 0-20.175 10.983-37.785 27.295-47.177l0.264-0.14v-52.992c0-14.798 11.996-26.795 26.795-26.795s26.795 11.996 26.795 26.795v0zM420.437 404.992h183.168v63.232c0 50.475-41.088 91.563-91.563 91.563s-91.563-41.088-91.563-91.563zM194.005 463.274h-127.573c-20.689 0-37.461 16.772-37.461 37.461s16.772 37.461 37.461 37.461h127.573c20.689 0 37.461-16.772 37.461-37.461s-16.772-37.461-37.461-37.461v0zM283.904 663.978c-0.026 0-0.056 0-0.086 0-9.029 0-17.304 3.223-23.739 8.582l0.060-0.049-100.907 82.987c-8.376 6.926-13.674 17.319-13.674 28.949 0 20.701 16.781 37.482 37.482 37.482 9.070 0 17.388-3.222 23.871-8.583l-0.063 0.051 100.907-82.987c8.398-6.922 13.712-17.326 13.712-28.971 0-20.689-16.772-37.461-37.461-37.461-0.036 0-0.071 0-0.107 0h0.005zM512 752.213c-20.689 0-37.461 16.772-37.461 37.461v0 128.597c0 20.689 16.772 37.461 37.461 37.461s37.461-16.772 37.461-37.461v-128.597c0-20.689-16.772-37.461-37.461-37.461v0zM740.096 663.978c-0.050 0-0.109 0-0.169 0-20.666 0-37.419 16.753-37.419 37.419 0 11.65 5.324 22.057 13.672 28.919l0.065 0.052 100.907 82.987c6.42 5.311 14.738 8.532 23.808 8.532 20.701 0 37.482-16.781 37.482-37.482 0-11.631-5.297-22.024-13.611-28.899l-0.063-0.051-100.907-82.987c-6.399-5.285-14.685-8.491-23.719-8.491-0.016 0-0.032 0-0.049 0h0.003zM957.568 463.274h-128.811c-20.689 0-37.461 16.772-37.461 37.461s16.772 37.461 37.461 37.461h128.811c20.689 0 37.461-16.772 37.461-37.461s-16.772-37.461-37.461-37.461v0z" />
<glyph unicode="&#xe90e;" glyph-name="checkmark" d="M1014.592 731.744l-90.848 90.848c-12.576 12.576-32.832 12.576-45.408 0l-464.48-490.368-266.24 266.368c-12.704 12.704-33.312 12.704-46.016 0l-92.032-92.096c-12.704-12.672-12.704-33.28 0-46.016l378.656-387.456c7.328-7.36 17.28-9.888 26.848-8.64 9.888-1.472 20.192 1.024 27.776 8.64l571.744 613.28c12.544 12.544 12.544 32.896 0 45.44z" />
<glyph unicode="&#xe90f;" glyph-name="cancel" d="M889.364 684.506l-235.759-237.196 235.759-235.785c9.869-9.843 9.869-25.813 0-35.683l-107.049-107.023c-9.814-9.869-25.789-9.869-35.659 0l-235.375 235.375-233.966-235.375c-9.843-9.869-25.813-9.869-35.683 0l-107.023 107.023c-9.843 9.869-9.843 25.839 0 35.683l233.966 235.375-233.94 233.94c-9.843 9.843-9.843 25.813 0 35.683l107.023 107.023c9.843 9.869 25.813 9.869 35.683 0l233.53-233.53 235.811 237.196c9.869 9.869 25.839 9.869 35.659 0l107.049-107.023c9.814-9.869 9.814-25.839-0.026-35.683z" />
<glyph unicode="&#xe910;" glyph-name="stats" d="M960 960h-896c-35.328 0-64-28.672-64-64v-640c0-35.328 28.672-64 64-64h256l-128-256h32l230.4 256h115.2l230.4-256h32l-128 256h256c35.328 0 64 28.672 64 64v640c0 35.328-28.672 64-64 64zM960 288c0-17.696-14.304-32-32-32h-832c-17.696 0-32 14.304-32 32v576c0 17.696 14.304 32 32 32h832c17.696 0 32-14.304 32-32v-576zM668.096 459.808l-144.672 372.128-158.016-297.28-88.192 90.72-149.216-92.992 42.112-24.256 95.616 59.584 115.36-118.784 133.6 251.296 147.712-380.128 125.984 265.216 51.328-109.248 56.288 9.44-107.328 228.224-120.576-253.92z" />
<glyph unicode="&#xe911;" glyph-name="Network" d="M384 187.733h256v-256h-256zM384 955.732h256v-256h-256zM768 187.733h256v-256h-256zM0.001 187.733h256v-256h-256zM480.001 635.733h64v-160h-64zM480.001 443.733h64v-192h-64zM928 251.733h-64v160h-704v-160h-64v224h832z" />
<glyph unicode="&#xf059;" glyph-name="question" horiz-adv-x="878" d="M502.857 265.143v-91.429c0-10.286-8-18.286-18.286-18.286h-91.429c-10.286 0-18.286 8-18.286 18.286v91.429c0 10.286 8 18.286 18.286 18.286h91.429c10.286 0 18.286-8 18.286-18.286zM649.143 548.571c0-81.143-56.571-113.143-98.286-136.571-29.714-17.143-48-28-48-46.286v-18.286c0-10.286-8-18.286-18.286-18.286h-91.429c-10.286 0-18.286 8-18.286 18.286v38.857c0 70.286 50.286 92.571 90.857 110.857 34.286 16 55.429 26.857 55.429 52.571 0 33.143-41.714 57.714-79.429 57.714-20 0-41.143-6.286-54.286-15.429-12.571-8.571-24.571-21.143-45.714-47.429-3.429-4.571-8.571-6.857-14.286-6.857-4 0-8 1.143-10.857 3.429l-61.714 46.857c-7.429 5.714-9.143 16.571-4 24.571 46.857 73.714 112.571 109.714 199.429 109.714v0c93.714 0 198.857-74.286 198.857-173.714zM438.857 804.571c-201.714 0-365.714-164-365.714-365.714s164-365.714 365.714-365.714 365.714 164 365.714 365.714-164 365.714-365.714 365.714zM877.714 438.857c0-242.286-196.571-438.857-438.857-438.857s-438.857 196.571-438.857 438.857 196.571 438.857 438.857 438.857v0c242.286 0 438.857-196.571 438.857-438.857z" />
</font>
</defs>
</svg>
