<svg xmlns="http://www.w3.org/2000/svg" width="50" height="50" viewBox="0 0 50 50" fill="none">
    <g opacity="0.8" filter="url(#filter0_b_605_1471)">
        <rect width="50" height="50" rx="16" fill="white" />
    </g>
    <path fill-rule="evenodd" clip-rule="evenodd"
        d="M7.76236 11.4259C7.59214 11.6505 7.49994 11.9253 7.5 12.2079V38.5754C7.49966 38.8582 7.59173 39.1333 7.76198 39.3582C7.93223 39.5831 8.1712 39.7452 8.442 39.8196L19.9453 42.9816C20.1349 43.0337 20.3339 43.041 20.5268 43.003C20.7197 42.965 20.9013 42.8826 21.0575 42.7624C21.2136 42.6421 21.3402 42.4872 21.4273 42.3097C21.5144 42.1321 21.5597 41.9367 21.5596 41.7387V9.04722C21.5598 8.84906 21.5147 8.65351 21.4277 8.4758C21.3407 8.29809 21.2142 8.14301 21.058 8.02262C20.9018 7.90223 20.7201 7.81979 20.5271 7.7817C20.3341 7.74362 20.135 7.75092 19.9453 7.80303L8.442 10.965C8.17141 11.0393 7.93259 11.2013 7.76236 11.4259ZM23.75 12.7962C23.75 12.6307 23.7738 12.4669 23.8201 12.3141C23.8664 12.1613 23.9342 12.0224 24.0198 11.9055C24.1053 11.7885 24.2068 11.6957 24.3186 11.6324C24.4303 11.5691 24.5501 11.5365 24.6711 11.5365H41.5789C41.6999 11.5365 41.8197 11.5691 41.9314 11.6324C42.0432 11.6957 42.1447 11.7885 42.2302 11.9055C42.3158 12.0224 42.3836 12.1613 42.4299 12.3141C42.4762 12.4669 42.5 12.6307 42.5 12.7962V37.9885C42.5 38.1539 42.4762 38.3177 42.4299 38.4705C42.3836 38.6233 42.3158 38.7622 42.2302 38.8791C42.1447 38.9961 42.0432 39.0889 41.9314 39.1522C41.8197 39.2155 41.6999 39.2481 41.5789 39.2481H24.6711C24.5501 39.2481 24.4303 39.2155 24.3186 39.1522C24.2068 39.0889 24.1053 38.9961 24.0198 38.8791C23.9342 38.7622 23.8664 38.6233 23.8201 38.4705C23.7738 38.3177 23.75 38.1539 23.75 37.9885V12.7962ZM31.729 18.1172C31.7287 17.9854 31.7685 17.8568 31.8431 17.7485C31.9177 17.6403 32.0234 17.5577 32.146 17.512C32.2686 17.4662 32.4022 17.4594 32.5288 17.4926C32.6553 17.5257 32.7688 17.5972 32.8537 17.6973L39.0412 24.9731C39.1403 25.0897 39.1947 25.2382 39.1947 25.3917C39.1947 25.5452 39.1403 25.6936 39.0412 25.8103L32.8537 33.0861C32.7688 33.1862 32.6553 33.2577 32.5288 33.2908C32.4022 33.324 32.2686 33.3172 32.146 33.2714C32.0234 33.2256 31.9177 33.1431 31.8431 33.0348C31.7685 32.9266 31.7287 32.798 31.729 32.6662V27.9676H28.5336C28.3641 27.9676 28.2016 27.8998 28.0817 27.779C27.9619 27.6583 27.8945 27.4945 27.8945 27.3237V23.4597C27.8945 23.2889 27.9619 23.1251 28.0817 23.0044C28.2016 22.8836 28.3641 22.8157 28.5336 22.8157H31.729V18.1172Z"
        fill="#0066FF" />
    <defs>
        <filter id="filter0_b_605_1471" x="-24" y="-24" width="98" height="98"
            filterUnits="userSpaceOnUse" color-interpolation-filters="sRGB">
            <feFlood flood-opacity="0" result="BackgroundImageFix" />
            <feGaussianBlur in="BackgroundImageFix" stdDeviation="12" />
            <feComposite in2="SourceAlpha" operator="in" result="effect1_backgroundBlur_605_1471" />
            <feBlend mode="normal" in="SourceGraphic" in2="effect1_backgroundBlur_605_1471"
                result="shape" />
        </filter>
    </defs>
</svg>