<svg xmlns="http://www.w3.org/2000/svg" width="38" height="38" viewBox="0 0 38 38" fill="none">
    <rect opacity="0.1" width="38" height="38" rx="19" fill="#605BFF" />
    <path fill-rule="evenodd" clip-rule="evenodd"
        d="M26.4052 20.6107L26.4057 20.6102V20.6113C26.4055 20.6111 26.4054 20.6109 26.4052 20.6107ZM26.4052 20.6107C25.5051 19.3859 24.3736 18.3996 23.0921 17.723C21.8104 17.0463 20.4105 16.6961 18.9932 16.6976C17.5808 16.6962 16.1854 17.0441 14.9071 17.7166C13.6288 18.3892 12.4992 19.3696 11.5989 20.5877L13.7116 22.5479C14.3543 21.6773 15.1611 20.9766 16.0742 20.4959C16.9874 20.0153 17.9842 19.7668 18.9932 19.768C20.0059 19.7665 21.0062 20.0166 21.922 20.5002C22.8378 20.9839 23.6463 21.689 24.289 22.5648L26.4052 20.6107ZM28.4992 18.6263L30.6109 16.665C27.7618 12.8233 23.5415 10.5557 18.9932 10.5557C16.7775 10.5534 14.5886 11.0983 12.5827 12.1516C10.5768 13.2049 8.8033 14.7406 7.38867 16.6492L9.49631 18.6128C11.8303 15.4749 15.276 13.6272 18.9932 13.6272C20.809 13.6247 22.6029 14.0715 24.2463 14.9358C25.8897 15.8 27.342 17.0603 28.4992 18.6263ZM20.0411 26.4524L22.1336 24.4652C21.3579 23.4417 20.2181 22.8382 18.9938 22.8382C18.3768 22.8378 17.7677 22.9928 17.2117 23.2918C16.6556 23.5908 16.1668 24.0261 15.7815 24.5654L17.9223 26.4862L18.9576 27.4444L20.0411 26.4524Z"
        fill="#605BFF" />
    <path
        d="M25.8613 17.9443C28.4848 17.9443 30.6113 20.0709 30.6113 22.6943C30.6113 25.3178 28.4848 27.4443 25.8613 27.4443C23.2379 27.4443 21.1113 25.3178 21.1113 22.6943C21.1113 20.0709 23.2379 17.9443 25.8613 17.9443ZM25.0268 24.0718L24.0183 23.0634C23.9745 23.018 23.9221 22.9819 23.8641 22.957C23.8062 22.9321 23.7439 22.919 23.6808 22.9184C23.6177 22.9179 23.5552 22.9299 23.4968 22.9538C23.4384 22.9777 23.3854 23.0129 23.3408 23.0575C23.2962 23.1021 23.2609 23.1552 23.237 23.2135C23.2132 23.2719 23.2011 23.3345 23.2017 23.3975C23.2022 23.4606 23.2153 23.5229 23.2402 23.5809C23.2651 23.6388 23.3013 23.6912 23.3467 23.7351L24.6905 25.0788C24.7795 25.1679 24.9003 25.2179 25.0263 25.2179C25.1522 25.2179 25.273 25.1679 25.3621 25.0788L28.7204 21.7201C28.7668 21.6766 28.804 21.6241 28.8298 21.566C28.8555 21.5078 28.8693 21.445 28.8704 21.3813C28.8714 21.3177 28.8596 21.2545 28.8358 21.1955C28.8119 21.1365 28.7764 21.0829 28.7314 21.0379C28.6864 20.9928 28.6329 20.9573 28.5739 20.9334C28.5149 20.9095 28.4517 20.8977 28.3881 20.8987C28.3244 20.8997 28.2616 20.9134 28.2034 20.9392C28.1452 20.9649 28.0927 21.0021 28.0492 21.0485L25.0263 24.0709L25.0268 24.0718Z"
        fill="#605BFF" />
</svg>