<svg xmlns="http://www.w3.org/2000/svg" width="22" height="22" viewBox="0 0 22 22" fill="none">
    <path
        d="M22 2C22 0.89543 21.1046 0 20 0H2C0.89543 0 0 0.895431 0 2V20C0 21.1046 0.895432 22 2 22H20C21.1046 22 22 21.1046 22 20V2Z"
        fill="black" fill-opacity="0.08" />
    <path d="M4 13H18V18C18 18.5523 17.5523 19 17 19H5C4.44772 19 4 18.5523 4 18V13Z" fill="#AAAAAA" />
    <path fill-rule="evenodd" clip-rule="evenodd"
        d="M7 17C7.55228 17 8 16.5523 8 16C8 15.4477 7.55228 15 7 15C6.44772 15 6 15.4477 6 16C6 16.5523 6.44772 17 7 17ZM10 17C10.5523 17 11 16.5523 11 16C11 15.4477 10.5523 15 10 15C9.44772 15 9 15.4477 9 16C9 16.5523 9.44772 17 10 17Z"
        fill="#D9D9D9" />
    <path
        d="M5.06352 3.88412C5.12232 3.38008 5.54933 3 6.05678 3H15.9432C16.4507 3 16.8777 3.38008 16.9365 3.88412L18 13H4L5.06352 3.88412Z"
        fill="#928F8F" />
</svg>