<svg xmlns="http://www.w3.org/2000/svg" width="50" height="50" viewBox="0 0 50 50" fill="none">
    <g opacity="0.8" filter="url(#filter0_b_605_1484)">
        <rect width="50" height="50" rx="16" fill="white" />
    </g>
    <path
        d="M24.9818 7.79529C15.4748 7.79529 7.76855 15.4931 7.76855 24.9899C7.76855 34.4866 15.4748 42.1844 24.9818 42.1844C34.4887 42.1844 42.1946 34.4866 42.1946 24.9899C42.1946 15.4931 34.4884 7.79529 24.9818 7.79529ZM14.4472 22.3127C14.4433 22.306 14.4433 22.2955 14.4391 22.2877L14.4286 22.2456C14.4286 22.2375 14.4247 22.2308 14.4247 22.2245L14.4141 22.1781C14.4141 22.1675 14.4103 22.1608 14.4103 22.1542C14.4075 22.1394 14.4075 22.1211 14.4036 22.1077C14.4036 22.0972 14.3994 22.0891 14.3994 22.0786C14.3994 22.0656 14.3955 22.0508 14.3955 22.0364C14.393 22.0272 14.393 22.0125 14.393 22.0009V22.0023C14.393 21.9917 14.3892 21.9812 14.393 21.9626C14.3892 21.9415 14.3892 21.9161 14.3892 21.8922C14.3892 21.8673 14.393 21.8458 14.393 21.8209L14.3955 21.7864L14.3994 21.7506C14.3994 21.7361 14.3994 21.7214 14.4036 21.7084C14.4036 21.6978 14.4075 21.6897 14.4075 21.6792C14.4078 21.6641 14.4103 21.649 14.4141 21.6342C14.4141 21.6222 14.418 21.6156 14.418 21.6092L14.4286 21.5632C14.4286 21.5551 14.4286 21.5484 14.4324 21.5421L14.443 21.4999C14.4468 21.4932 14.4468 21.4827 14.4507 21.476C14.4532 21.464 14.4612 21.4496 14.4651 21.4363L14.4757 21.4071C14.4795 21.3965 14.4862 21.3832 14.489 21.3726L14.5024 21.341C14.5048 21.3304 14.5115 21.3199 14.5154 21.309C14.5182 21.2985 14.5235 21.284 14.5312 21.2731C14.5379 21.2654 14.5404 21.2545 14.5446 21.2492C14.5484 21.2334 14.5551 21.2229 14.5632 21.2095C14.5692 21.2035 14.5741 21.1961 14.5776 21.1884C14.5843 21.1736 14.5924 21.1635 14.6001 21.1487C14.6057 21.1427 14.61 21.136 14.6135 21.129C14.6212 21.1142 14.6321 21.1026 14.6398 21.0893C14.6427 21.0815 14.6504 21.0745 14.6546 21.0682L14.6838 21.0285L14.701 21.0074C14.7091 20.9968 14.7154 20.9863 14.7263 20.9757C14.7341 20.9652 14.745 20.9585 14.7527 20.9479C14.7604 20.9413 14.7675 20.9293 14.7738 20.923L14.8255 20.8699L18.3144 17.4787C18.9025 16.9124 19.8342 16.9124 20.4223 17.4787C21.0049 18.0447 21.0049 18.9602 20.4223 19.5262L19.4756 20.4456H33.9983C34.8245 20.4456 35.4903 21.0963 35.4903 21.8951C35.4903 22.698 34.8202 23.346 33.9983 23.346H15.8731C15.852 23.346 15.8267 23.3417 15.8004 23.3417L15.7687 23.3379L15.7314 23.3354C15.7167 23.3358 15.7019 23.3347 15.6879 23.3315C15.6773 23.3315 15.6692 23.3277 15.6587 23.3277C15.6432 23.327 15.6274 23.3249 15.6123 23.321C15.6003 23.321 15.5936 23.3171 15.5855 23.3171L15.5391 23.3066C15.5272 23.3038 15.5205 23.3038 15.5128 23.2999L15.4706 23.2894C15.4625 23.2855 15.4509 23.2855 15.4439 23.2813L15.4041 23.2683L15.375 23.2563L15.3377 23.2429L15.3061 23.2324L15.273 23.2176C15.2625 23.2148 15.248 23.211 15.2371 23.2029C15.2294 23.1962 15.2185 23.1937 15.2108 23.1899C15.1974 23.186 15.1841 23.1793 15.1711 23.1712C15.1644 23.1656 15.1566 23.161 15.1486 23.1579L15.1088 23.1368C15.1021 23.1311 15.0944 23.1266 15.0863 23.1238C15.073 23.1157 15.061 23.1051 15.0466 23.097C15.0385 23.0942 15.0322 23.0865 15.0255 23.084L14.9858 23.0549L14.9633 23.039L14.9302 23.0127C14.9197 23.006 14.913 22.9954 14.9025 22.9888L14.8761 22.9677C14.8589 22.949 14.8402 22.9357 14.8216 22.9174C14.803 22.9002 14.7886 22.8815 14.7713 22.8647C14.7636 22.858 14.7566 22.8474 14.7502 22.8394C14.7421 22.8288 14.7302 22.8221 14.7239 22.8116C14.7158 22.801 14.7052 22.7905 14.6986 22.7796L14.6799 22.7585C14.6694 22.7455 14.6574 22.7335 14.6497 22.7188C14.6472 22.7121 14.6402 22.7058 14.6363 22.6991C14.6286 22.6847 14.6177 22.6727 14.61 22.6594C14.6033 22.6516 14.5994 22.6449 14.5966 22.6383L14.5741 22.5999L14.5597 22.5774C14.5558 22.5644 14.5491 22.5535 14.5411 22.5405C14.5344 22.5328 14.5305 22.5222 14.5266 22.5142C14.5242 22.5036 14.5161 22.4902 14.5122 22.4797C14.5094 22.4692 14.5017 22.4586 14.4975 22.4481L14.4869 22.415L14.4721 22.3792L14.4616 22.3528C14.4539 22.3405 14.4511 22.3261 14.4472 22.3127ZM35.5701 28.155L35.5677 28.1908L35.5638 28.2267C35.5638 28.2401 35.5638 28.2545 35.5599 28.2689C35.5599 28.2794 35.5557 28.2861 35.5557 28.2967C35.5554 28.3121 35.5529 28.3279 35.549 28.3431C35.549 28.3536 35.5452 28.3603 35.5452 28.367L35.5346 28.4134C35.5346 28.4215 35.5346 28.4278 35.5307 28.4345L35.5202 28.4767C35.516 28.4847 35.516 28.4953 35.5121 28.502C35.5093 28.5139 35.5016 28.5269 35.4977 28.5403C35.4949 28.5522 35.491 28.5589 35.4871 28.5695L35.4738 28.6053L35.4608 28.637C35.4583 28.6475 35.4513 28.6584 35.4474 28.669C35.4446 28.6795 35.4397 28.6929 35.4316 28.7034C35.4249 28.7111 35.4225 28.722 35.4186 28.7284C35.4144 28.7417 35.408 28.7533 35.4 28.7681C35.3933 28.7748 35.3894 28.7815 35.3852 28.7878C35.3785 28.8022 35.3708 28.8142 35.3627 28.8275C35.356 28.8352 35.3521 28.8423 35.3493 28.8486C35.3416 28.862 35.3307 28.8736 35.323 28.8883C35.3202 28.895 35.3124 28.9017 35.3082 28.908C35.2977 28.9224 35.291 28.9344 35.279 28.9477L35.2618 28.9688C35.2537 28.9794 35.247 28.9899 35.2351 29.0008C35.2245 29.0114 35.2179 29.0219 35.2059 29.0325C35.1982 29.0392 35.1915 29.0511 35.1848 29.0574L35.1331 29.1105L31.6428 32.5017C31.0617 33.0677 30.1202 33.0677 29.5377 32.5017C28.9551 31.9357 28.9551 31.0202 29.5377 30.4542L30.483 29.5349H15.9564C15.1317 29.5349 14.4655 28.8841 14.4655 28.0854C14.4655 27.2824 15.1355 26.6345 15.9564 26.6345H34.0858C34.1069 26.6345 34.1322 26.6383 34.1586 26.6383C34.1691 26.6383 34.1797 26.6422 34.1916 26.6422L34.2275 26.645C34.2423 26.645 34.2581 26.645 34.2711 26.6489C34.2816 26.6489 34.2897 26.6531 34.3003 26.6531C34.3157 26.6535 34.3316 26.6559 34.3467 26.6598C34.36 26.6598 34.3667 26.6636 34.3734 26.6636L34.4198 26.6742C34.4328 26.6767 34.4395 26.6767 34.4462 26.6809L34.4898 26.6914C34.4979 26.6956 34.5084 26.6956 34.5165 26.6995L34.5562 26.7125L34.584 26.7245L34.6213 26.7378L34.6543 26.7484L34.6859 26.7628C34.6979 26.7656 34.7123 26.7695 34.7218 26.7776C34.7295 26.7842 34.7418 26.7867 34.7482 26.7906C34.7629 26.7948 34.7749 26.8011 34.7879 26.8092C34.7946 26.8148 34.8023 26.8194 34.8104 26.8226L34.8501 26.8436C34.8582 26.8503 34.8645 26.8542 34.8726 26.857C34.886 26.8647 34.8979 26.8756 34.9123 26.8834C34.919 26.8862 34.9271 26.8939 34.9348 26.8967L34.9746 26.9259L34.996 26.9417C35.0066 26.9495 35.0185 26.9576 35.0291 26.9681C35.0396 26.9748 35.0477 26.9853 35.0568 26.992L35.0832 27.0131L35.1377 27.0634L35.1894 27.1165C35.1975 27.1231 35.2041 27.1337 35.2105 27.1414C35.2186 27.152 35.2291 27.1586 35.2354 27.1692L35.2621 27.2012L35.2794 27.2223C35.2913 27.2356 35.3019 27.2472 35.3096 27.262C35.3124 27.2687 35.3202 27.2754 35.323 27.2817C35.3307 27.2965 35.3416 27.3081 35.3493 27.3214C35.3553 27.3274 35.3602 27.3348 35.3638 27.3425C35.3704 27.3573 35.3785 27.3675 35.3862 27.3808C35.3929 27.3886 35.3954 27.3956 35.3996 27.4033C35.4035 27.4167 35.4102 27.4272 35.4182 27.4402C35.4249 27.448 35.4288 27.4589 35.4327 27.4666L35.4474 27.5011C35.4513 27.5116 35.458 27.5222 35.4608 27.5327L35.4738 27.5658L35.4871 27.6016L35.4991 27.628C35.5058 27.6403 35.51 27.6536 35.5121 27.6677C35.516 27.6744 35.516 27.6849 35.5202 27.6927L35.5307 27.7349C35.5307 27.7429 35.5307 27.7493 35.5346 27.7563L35.5452 27.8027C35.5452 27.8133 35.549 27.8199 35.549 27.8266C35.5529 27.8414 35.5529 27.8597 35.5557 27.873C35.5557 27.8836 35.5599 27.8917 35.5599 27.9022C35.5599 27.9152 35.5638 27.93 35.5638 27.9444C35.5677 27.9549 35.5677 27.9683 35.5677 27.9788C35.5701 27.9933 35.5701 28.0038 35.5701 28.0144C35.574 28.0354 35.574 28.0594 35.574 28.0857C35.5743 28.1089 35.5701 28.13 35.5701 28.155Z"
        fill="#0066FF" />
    <defs>
        <filter id="filter0_b_605_1484" x="-24" y="-24" width="98" height="98"
            filterUnits="userSpaceOnUse" color-interpolation-filters="sRGB">
            <feFlood flood-opacity="0" result="BackgroundImageFix" />
            <feGaussianBlur in="BackgroundImageFix" stdDeviation="12" />
            <feComposite in2="SourceAlpha" operator="in" result="effect1_backgroundBlur_605_1484" />
            <feBlend mode="normal" in="SourceGraphic" in2="effect1_backgroundBlur_605_1484"
                result="shape" />
        </filter>
    </defs>
</svg>