<svg xmlns="http://www.w3.org/2000/svg" width="50" height="50" viewBox="0 0 50 50" fill="none">
    <g opacity="0.8" filter="url(#filter0_b_605_1479)">
        <rect width="50" height="50" rx="16" fill="white" />
    </g>
    <path fill-rule="evenodd" clip-rule="evenodd"
        d="M32.4559 14.6579H17.7223C17.1059 14.6579 16.5794 14.2144 16.6736 13.5127V9.98231C16.6736 9.45275 17.1102 8.83709 17.8122 8.83709H18.5998C19.2119 8.83709 19.7384 8.39795 19.7384 7.69188C19.7384 6.45625 20.7015 5.48755 21.93 5.48755H28.4236C29.6521 5.48755 30.6152 6.45625 30.6152 7.69188C30.6152 8.22143 31.0519 8.83709 31.7539 8.83709H32.4559C33.068 8.83709 33.5945 9.27624 33.5945 9.98231V13.5127C33.5945 14.0422 33.1579 14.6579 32.4559 14.6579ZM27.5418 10.0684C27.5418 8.74237 26.5787 7.59716 25.1747 7.59716C23.9462 7.59716 22.8076 8.74237 22.8076 10.0684C22.8076 11.3945 23.9462 12.5397 25.1747 12.5397C26.4032 12.5397 27.5418 11.6571 27.5418 10.0684ZM36.9288 9.36234H37.6308C39.1205 9.36234 40.0879 10.6884 39.9937 12.0101V40.9505C39.9937 42.4488 38.5041 44.0374 37.1 44.0374H12.8936C11.2285 44.0374 10 42.2723 10 40.9505V12.1909C10 10.6023 10.7919 9.36665 12.6325 9.54317H13.3388C13.9509 9.54317 14.4774 9.98231 14.4774 10.6884V15.8892C14.4774 16.4188 14.9141 17.0344 15.6161 17.0344L34.5617 16.8579C35.1738 16.8579 35.7003 16.4188 35.7003 15.7127V10.5076C35.7003 9.80149 36.2268 9.36234 36.9288 9.36234ZM16.4936 34.5399H20.9582C21.3948 34.5399 21.7458 34.1869 21.7458 33.7477C21.7458 33.3086 21.3948 32.9555 20.9582 32.9555H16.4936C16.057 32.9555 15.7059 33.3086 15.7059 33.7477C15.7059 34.1869 16.057 34.5399 16.4936 34.5399ZM16.4936 28.8999H25.701C26.1376 28.8999 26.4886 28.5469 26.4886 28.1077C26.4886 27.6686 26.1333 27.3156 25.701 27.3156H16.4936C16.057 27.3156 15.7059 27.6686 15.7059 28.1077C15.7059 28.5469 16.057 28.8999 16.4936 28.8999ZM33.5258 23.4278C33.9496 23.4278 34.292 23.0834 34.292 22.6572V22.6184C34.292 22.1922 33.9496 21.8478 33.5258 21.8478H16.4722C16.0484 21.8478 15.7059 22.1922 15.7059 22.6184V22.6572C15.7059 23.0834 16.0484 23.4278 16.4722 23.4278H33.5258Z"
        fill="#0066FF" />
    <defs>
        <filter id="filter0_b_605_1479" x="-24" y="-24" width="98" height="98"
            filterUnits="userSpaceOnUse" color-interpolation-filters="sRGB">
            <feFlood flood-opacity="0" result="BackgroundImageFix" />
            <feGaussianBlur in="BackgroundImageFix" stdDeviation="12" />
            <feComposite in2="SourceAlpha" operator="in" result="effect1_backgroundBlur_605_1479" />
            <feBlend mode="normal" in="SourceGraphic" in2="effect1_backgroundBlur_605_1479"
                result="shape" />
        </filter>
    </defs>
</svg>