<svg xmlns="http://www.w3.org/2000/svg" width="16" height="16" viewBox="0 0 16 16" fill="none">
<g clip-path="url(#clip0_605_1211)">
<path d="M15.1432 10.9578C14.7339 11.9034 14.1804 12.7249 13.4827 13.4223C12.7853 14.12 11.9664 14.6737 11.0268 15.0828C10.0869 15.4924 9.08074 15.6969 8.00829 15.6969C6.9361 15.6969 5.9271 15.4924 4.9813 15.0828C4.03574 14.6737 3.21424 14.12 2.51681 13.4223C1.81913 12.7248 1.26538 11.9034 0.856294 10.9578C0.44673 10.012 0.242188 9.00302 0.242188 7.93081C0.242188 6.85836 0.44673 5.85221 0.856294 4.91235C1.26538 3.97272 1.81913 3.15382 2.51681 2.45638C3.21424 1.7587 4.03574 1.20518 4.9813 0.79587C5.9271 0.386554 6.93609 0.181763 8.00829 0.181763C9.08074 0.181763 10.0869 0.386553 11.0268 0.79587C11.9664 1.2052 12.7853 1.7587 13.4827 2.45638C14.1804 3.15383 14.7339 3.97273 15.1432 4.91235C15.5525 5.85221 15.7573 6.85836 15.7573 7.93081C15.7573 9.00302 15.5526 10.012 15.1432 10.9578Z" fill="#FF8F6B"/>
<path d="M8.00024 11.0815C7.38043 11.0815 6.87842 11.5836 6.87842 12.2034C6.87842 12.8232 7.38043 13.3252 8.00024 13.3252C8.62005 13.3252 9.12206 12.8232 9.12206 12.2034C9.12206 11.5836 8.62005 11.0815 8.00024 11.0815Z" fill="white"/>
<path d="M8.00024 9.99549C7.69062 9.99549 7.43933 9.47186 7.43933 8.82536L6.87842 3.55978C6.87842 2.91328 7.38043 2.38965 8.00024 2.38965C8.62005 2.38965 9.12206 2.91328 9.12206 3.55978L8.56115 8.82536C8.56115 9.47186 8.30986 9.99549 8.00024 9.99549Z" fill="white"/>
</g>
<defs>
<clipPath id="clip0_605_1211">
<rect width="16" height="16" fill="white"/>
</clipPath>
</defs>
</svg>