<svg xmlns="http://www.w3.org/2000/svg" width="100" height="100" class="icon">
    <circle cx="50" cy="50" r="50" fill="#8391AE" stroke="null" />
    <path fill="#fff" stroke="null"
        d="M75.26 51.66H24.74a9.18 9.18 0 0 0-9.18 9.18v4.6a9.18 9.18 0 0 0 9.18 9.18h50.52a9.18 9.18 0 0 0 9.18-9.18v-4.6a9.18 9.18 0 0 0-9.18-9.18zM59.18 68.88a5.17 5.17 0 1 1 5.17-5.17 5.17 5.17 0 0 1-5.17 5.17zm13.2 0a5.17 5.17 0 1 1 5.17-5.17 5.17 5.17 0 0 1-5.16 5.17zM29.34 30.72c6.9-6.62 14.06-9.83 21.59-9.83s15.04 3.44 21.9 10.24a3.44 3.44 0 1 0 4.73-4.9C69.6 18.26 60.33 14 50.92 14s-18.33 4.06-26.18 11.78a3.44 3.44 0 0 0 4.6 4.94zm3.29 8.1a3.44 3.44 0 0 0 4.59 5.03c8.77-8.17 18.78-7.97 27.4.37a3.44 3.44 0 1 0 4.8-4.96 26.96 26.96 0 0 0-18.5-8.27 26.75 26.75 0 0 0-18.2 7.83h-.1z" />
</svg>