<?xml version="1.0" encoding="UTF-8"?>
<!DOCTYPE svg PUBLIC "-//W3C//DTD SVG 1.1//EN" "http://www.w3.org/Graphics/SVG/1.1/DTD/svg11.dtd">
<!-- Creator: CorelDRAW -->
<svg xmlns="http://www.w3.org/2000/svg" xml:space="preserve" width="50mm" height="50mm" version="1.1" style="shape-rendering:geometricPrecision; text-rendering:geometricPrecision; image-rendering:optimizeQuality; fill-rule:evenodd; clip-rule:evenodd"
viewBox="0 0 5000 5000"
 xmlns:xlink="http://www.w3.org/1999/xlink"
 xmlns:xodm="http://www.corel.com/coreldraw/odm/2003">
 <defs>
  <style type="text/css">
   <![CDATA[
    .fil0 {fill:none}
    .fil1 {fill:#FEFEFE}
   ]]>
  </style>
 </defs>
 <g id="Layer_x0020_1">
  <metadata id="CorelCorpID_0Corel-Layer"/>
  <rect class="fil0" x="-7.13" y="0.53" width="5000" height="5000"/>
  <rect class="fil0" x="359.2" y="425.8" width="4200" height="4200"/>
  <g id="_2493129219008">
   <path class="fil1" d="M2639.89 3073.32c-33.05,-5.18 -419.69,-17.75 -441.84,7.43 -45.77,94.27 33.29,716.21 -32.4,782.38 -41.39,41.7 -686.71,21.45 -795.14,21.46 -294.56,0.02 -254.1,78.93 -254.1,-564.09l-0.25 -2032.92c-0.86,-178.18 19.8,-155.37 254.35,-155.35 108.97,0.01 751.24,-15.73 791.92,17.78 57.88,47.69 15.74,662.9 30.33,786.79 53.57,21.97 378.93,15.5 451.01,7.01 24.16,-147.07 5.59,-467.5 5.92,-633.12 0.84,-429.07 -214.17,-640.01 -636.02,-639.17 -214.37,0.43 -428.79,0.06 -643.16,0.05 -222.49,-0.02 -358.31,-1.03 -506.93,120.72 -120.28,98.54 -201.41,225.51 -204.38,437.54 -5.95,423.35 -0.03,851.39 -0.03,1275.26 0,423.95 -5.41,851.37 0.02,1274.87 2.65,206.81 78.8,335.94 193.65,437.05 134.26,118.2 297.6,123.72 517.67,123.72 210.55,0 421.1,-0.12 631.65,0.01 233.6,0.14 358.7,-30.08 486.34,-154.86 106.03,-103.65 161.57,-270.06 161.2,-474.9 -0.2,-111.41 14.9,-566.2 -9.81,-637.66z"/>
   <path class="fil1" d="M3123.97 1747.1l60.12 69.87c77.16,80.88 433.37,420.74 443.48,452.41l-74.97 3.15c-344.37,7.15 -1673.15,-17.05 -1877.83,5.77l-0.16 449.95 1952.94 11.18c-12.46,45.34 -468.94,448.06 -502.79,523.65 29.83,42.67 291.94,305.63 324.03,318.58 162.63,-145.69 328.12,-328.33 486.32,-487.32 180.27,-181.17 399.42,-344.77 396.04,-588.86 -3.53,-255.78 -206.18,-394.59 -392.9,-581.28 -70.76,-70.73 -453.9,-465.22 -500.51,-491.45l-313.77 314.35z"/>
  </g>
 </g>
</svg>
