<?xml version="1.0" encoding="UTF-8"?>
<!DOCTYPE svg PUBLIC "-//W3C//DTD SVG 1.1//EN" "http://www.w3.org/Graphics/SVG/1.1/DTD/svg11.dtd">
<!-- Creator: CorelDRAW -->
<svg xmlns="http://www.w3.org/2000/svg" xml:space="preserve" width="50mm" height="50mm" version="1.1" style="shape-rendering:geometricPrecision; text-rendering:geometricPrecision; image-rendering:optimizeQuality; fill-rule:evenodd; clip-rule:evenodd"
viewBox="0 0 5000 5000"
 xmlns:xlink="http://www.w3.org/1999/xlink"
 xmlns:xodm="http://www.corel.com/coreldraw/odm/2003">
 <defs>
  <style type="text/css">
   <![CDATA[
    .fil0 {fill:none}
    .fil1 {fill:#FEFEFE}
   ]]>
  </style>
 </defs>
 <g id="Layer_x0020_1">
  <metadata id="CorelCorpID_0Corel-Layer"/>
  <rect class="fil0" x="-7.13" y="0.53" width="5000" height="5000"/>
  <path class="fil1" d="M3141.29 1066.8c45.57,-5.15 261.46,245.08 292.77,277.66 295.91,307.95 135.54,185.2 188.19,399.61 43.03,175.21 297.07,157.98 310.95,-38.71 27.19,-385.12 -175.3,-478.54 -429.97,-741.83 -378.47,-391.28 -324.99,-372.91 -802.31,-372.91 -199.87,0 -399.74,0 -599.61,0 -342.86,0 -805.52,-46.33 -1087.81,87.4 -122.07,57.83 -244.39,178.04 -307.92,279.39 -86.36,137.76 -126.88,277.21 -126.86,472.59 0.02,391.75 0.04,783.49 0.04,1175.24 0,556.64 -81.08,1015.32 493.15,1281.24 150.34,69.63 346.13,65.19 525.78,65.18 337.08,-0.01 270.14,-214.48 210.27,-273.71 -149.64,-148.04 -659.7,111.59 -858.96,-316.01 -72.45,-155.46 -52.18,-354.35 -52.18,-540.84 0,-395.75 0,-791.48 0,-1187.23 0,-305.43 -25.09,-479.2 230.61,-650.05 39.85,-26.62 170.83,-88.25 227.52,-67.88 47.98,17.24 24.79,201.34 24.79,262.23 0,160.27 -22.12,438.71 51.69,549.97 36.8,55.46 94.13,105.27 170.39,129.77 110.26,35.42 968.27,14.69 1159.13,14.74 530.57,0.15 335.51,-541.5 380.34,-805.85zm73.29 1124.14c-275.55,27.09 -585.34,156.73 -751.98,367.78 -186.84,236.65 -314.3,487.54 -280.93,830.47 27.58,283.38 151.89,578.79 366.38,748 244.31,192.74 471.55,316.4 833.1,288.22 279.88,-21.81 578.78,-170.82 746.71,-369.03 163.42,-192.9 313.2,-472.35 280.54,-832.28 -31.63,-348.55 -182.52,-576.28 -364.37,-750.64 -164.85,-158.07 -499.37,-314.97 -829.45,-282.52zm-30.23 326.85c-406.08,58.46 -750.71,426 -679.49,907.7 59.33,401.31 435.65,744.51 913.02,673.06 386.43,-57.84 744.9,-438.84 667.11,-909.99 -65.69,-397.88 -425.71,-739.13 -900.64,-670.77zm-1488.07 -1531.49l0 491.68c0,80.93 2.07,71.99 81.24,71.99l971.37 0c75.85,0 66.15,0.16 66.15,-71.99l0 -491.68c0,-73.13 11.76,-73.75 -66.15,-73.75l-968.37 0c-84.36,0 -84.24,-8.56 -84.24,73.75zm1579.83 2158.56c-192.53,27.78 -610.98,-86.42 -617.57,155.74 -6.62,243.58 297.99,143.1 620.02,169.12 -42.11,85.57 -171.14,125.68 -136.95,266.85 27.85,114.96 173.94,148.56 266.05,67.3 78.15,-68.94 142.87,-140.65 218.73,-213.07 59.3,-56.6 150.52,-146.89 148.6,-276.26 -2.06,-139.29 -81.13,-223.32 -143.41,-284.83 -73.66,-72.75 -140.76,-147.23 -216.34,-215.38 -90.49,-81.58 -237.25,-61.85 -270.47,54.74 -43.93,154.19 88.6,191.64 131.34,275.79zm-1125.92 -939.16c-528.03,109.53 -576.09,829.59 -255.44,780.49 233.59,-35.76 15.8,-347.53 265.25,-454.45 45.2,-19.37 182.93,-31.55 176.58,-177.67 -4.25,-97.67 -85.43,-169.31 -186.39,-148.37z"/>
 </g>
</svg>
