<svg xmlns="http://www.w3.org/2000/svg" viewBox="0 0 256 256">
	<linearGradient id="a" x1="11.1379" x2="245.5302" y1="10.6499" y2="245.0422" gradientUnits="userSpaceOnUse">
		<stop offset="0" stop-color="#5e72e4"/>
		<stop offset="1" stop-color="#778aff"/>
	</linearGradient>
	<path fill="url(#a)" fill-rule="evenodd" d="M36.4.2h183.8c19.7 0 35.7 16 35.7 35.7v183.8c0 19.7-16 35.7-35.7 35.7H36.4c-19.7 0-35.7-16-35.7-35.7V35.9C.7 16.2 16.7.2 36.4.2z" clip-rule="evenodd"/>
	<g fill="#fff" fill-rule="evenodd">
		<path d="M128.3 31.6c-43.9 0-79.4 35.6-79.4 79.4 0 35.3 23.1 65.2 55 75.6l9.9-40.1C99.8 140.8 90 127.1 90 111c0-21.2 17.2-38.3 38.3-38.3 21.2 0 38.3 17.2 38.3 38.3 0 16-9.8 29.7-23.8 35.5l9.9 40.1c31.9-10.3 55-40.2 55-75.6.1-43.8-35.5-79.4-79.4-79.4z"/>
		<path d="M61.84 206.64a11.7872 11.7872 0 0 0-2.1664-1.6064Q56.1616 203 50.84 203a25.8864 25.8864 0 0 0-1.5968.048q-2.3312.144-4.2736.7216a12.5632 12.5632 0 0 0-5.1088 2.8512 10.864 10.864 0 0 0-1.7248 2.0768q-1.216 1.8992-1.7392 4.4048A20.2432 20.2432 0 0 0 36 217.24q0 7 3.8608 10.6208Q43.72 231.48 50.84 231.48a25.7824 25.7824 0 0 0 1.5792-.0464q5.9824-.368 9.4208-3.5936a10.9888 10.9888 0 0 0 1.6256-1.9168q1.296-1.9408 1.8464-4.5184a19.9248 19.9248 0 0 0 .408-4.1648q0-2.84-.6464-5.128a11.6784 11.6784 0 0 0-3.2336-5.472Zm-16.8 9.32v2.56a9.3424 9.3424 0 0 0 .184 1.9056q.3376 1.6192 1.296 2.7344a4.7648 4.7648 0 0 0 2.5664 1.5264q.8.1936 1.7536.1936a7.5088 7.5088 0 0 0 1.72-.184q1.3984-.3296 2.3424-1.2416a4.7632 4.7632 0 0 0 .2784-.2944 5.8336 5.8336 0 0 0 1.2432-2.4272q.224-.8784.2528-1.9136a11.0128 11.0128 0 0 0 .0032-.2992v-2.56a9.2016 9.2016 0 0 0-.1888-1.9232q-.264-1.2304-.8912-2.1696a5.4224 5.4224 0 0 0-.4192-.5472 4.8432 4.8432 0 0 0-2.6112-1.5328A7.4992 7.4992 0 0 0 50.84 209.6q-2.4816 0-3.9248 1.3152a4.6496 4.6496 0 0 0-.3952.4048 5.8464 5.8464 0 0 0-1.216 2.3872q-.264 1.0208-.264 2.2528Z"/>
		<path d="M77.72 229.08v9.8h-7.96v-29h6.48l.68 3q2.32-3.48 6.72-3.48 4.28 0 6.6 2.8a8.944 8.944 0 0 1 1.5664 2.9008q.4352 1.304.6192 2.8976a21.6768 21.6768 0 0 1 .1344 2.4816 20.3744 20.3744 0 0 1-.2144 3.0688q-.2416 1.584-.7552 2.8576a8.5344 8.5344 0 0 1-1.3504 2.2944 7.5456 7.5456 0 0 1-4.6416 2.616 11.2352 11.2352 0 0 1-1.9584.1632 9.1536 9.1536 0 0 1-2.704-.3808 7.2464 7.2464 0 0 1-3.216-2.0192Zm-.08-9.32v1.32q0 2 .88 3.2608a2.8624 2.8624 0 0 0 2.0608 1.2224 4.3392 4.3392 0 0 0 .5792.0368q3.1952 0 3.4224-3.552a8.8608 8.8608 0 0 0 .0176-.568v-2.12a7.0528 7.0528 0 0 0-.1504-1.5264q-.568-2.5536-3.2896-2.5536a3.9504 3.9504 0 0 0-1.0832.1408A2.7936 2.7936 0 0 0 78.52 216.52a4.5072 4.5072 0 0 0-.68 1.5072q-.2.7808-.2 1.7328Z"/>
		<path d="M119.14 220.44v1.36H103.3a8.1392 8.1392 0 0 0 .096 1.2864q.216 1.3472.9248 2.1536a3.1376 3.1376 0 0 0 1.3584.8864q.52.1792 1.1584.2416a7.296 7.296 0 0 0 .7024.032 7.5936 7.5936 0 0 0 1.0416-.0656q.536-.0752.9664-.232a2.8528 2.8528 0 0 0 .9328-.5424 2.7712 2.7712 0 0 0 .9232-1.8768 3.8608 3.8608 0 0 0 .016-.3632h7.72a8.0848 8.0848 0 0 1-.4448 2.744 6.8928 6.8928 0 0 1-2.4752 3.256 9.6224 9.6224 0 0 1-2.8144 1.3984q-1.32.4224-2.9312.6112a23.968 23.968 0 0 1-2.7744.1504 20.28 20.28 0 0 1-3.5744-.2944q-3.368-.6048-5.5456-2.4448-3-2.5376-3.2224-7.4928a18.0432 18.0432 0 0 1-.0176-.808 14.9024 14.9024 0 0 1 .3328-3.2496q.4704-2.1056 1.608-3.6544A8.5136 8.5136 0 0 1 98.5 212.2a10.5184 10.5184 0 0 1 4.1744-2.224q2.0272-.576 4.5456-.576a19.8464 19.8464 0 0 1 3.3584.2656q1.832.3152 3.288 1.0048a9.2848 9.2848 0 0 1 2.2144 1.4496q2.6704 2.3744 3.0096 6.9392a18.584 18.584 0 0 1 .0496 1.3808Zm-15.8-2.4h7.76a4.632 4.632 0 0 0-.1216-1.0912 3.1792 3.1792 0 0 0-.8176-1.5088q-.9296-.9488-2.5824-.96a5.8416 5.8416 0 0 0-.0384 0 5.84 5.84 0 0 0-1.6032.2032q-2.2608.6448-2.5968 3.3568Z"/>
		<path d="M144.8 217.32V231h-7.96v-12.72a4.3024 4.3024 0 0 0-.0896-.9072q-.1616-.7472-.6096-1.272a2.28 2.28 0 0 0-1.3728-.768 3.392 3.392 0 0 0-.608-.0528 3.7184 3.7184 0 0 0-1.1088.1584 2.9936 2.9936 0 0 0-1.2912.8016 3.2736 3.2736 0 0 0-.92 2.3168 4.2288 4.2288 0 0 0 0 .0432V231h-7.96v-21.12h6.52l.52 3.2q1.24-1.68 3.2608-2.68 2.0192-1 4.2592-1a10.552 10.552 0 0 1 2.1216.2q1.2496.256 2.2016.8448a5.4768 5.4768 0 0 1 1.1968.9952q1.84 2.04 1.84 5.88Z"/>
		<path d="M179.72 231H170l-3.56-16.76h-.16L162.72 231H153l-6.44-27.52h9.2l3.16 15.6h.16l3.12-15.6h8.72l3.32 15.6h.16l2.96-15.6h8.8L179.72 231Z"/>
		<path d="M203.16 209.84v6.68h-2.56a7.5984 7.5984 0 0 0-1.2848.1024q-.6928.1184-1.2352.3776a3.2016 3.2016 0 0 0-1.0592.8 4.056 4.056 0 0 0-.752 1.3584q-.2048.6-.288 1.336a9.7152 9.7152 0 0 0-.0608 1.1056v9.4h-7.96v-21.12h6.52l.52 3.2a5.8928 5.8928 0 0 1 .9936-1.6896 5.2096 5.2096 0 0 1 1.2864-1.0896 6.5984 6.5984 0 0 1 3.1568-.9328 7.9488 7.9488 0 0 1 .3632-.008 6.5808 6.5808 0 0 1 .8448.0528 4.8528 4.8528 0 0 1 .7952.168q.72.2192.72.2592Z"/>
		<path d="M216.32 209.88h4.48v5.4h-4.48v8.04a6.856 6.856 0 0 0 .0368.7392q.0832.752.3456 1.2096a1.6928 1.6928 0 0 0 .0976.152q.48.6592 1.76.6592h2.24v4.68a9.0752 9.0752 0 0 1-.7616.2144q-.3728.0896-.8016.1664a20.568 20.568 0 0 1-.9168.1392q-1.1632.1536-2.0928.1888a14.1904 14.1904 0 0 1-.5472.0112q-3.52 0-5.4192-1.28a4.0416 4.0416 0 0 1-1.6096-2.2272q-.2176-.6976-.272-1.5472a9.168 9.168 0 0 1-.0192-.5856v-10.56h-2.96v-5.4h3.28l1.72-6.4h5.92v6.4Z"/>
	</g>
</svg>
