<svg xmlns="http://www.w3.org/2000/svg" width="200" height="200" class="icon" viewBox="0 0 1024 1024">
	<path fill="#fff" d="M484.430769 51.2 236.307692 354.461538H118.153846c-43.323077 0-78.769231 35.446154-78.769231 78.769231v157.538462c0 43.323077 35.446154 78.769231 78.769231 78.769231h118.153846L484.430769 972.8c25.6 25.6 66.953846 7.876923 66.953846-27.569231V78.769231c0-35.446154-43.323077-53.169231-66.953846-27.569231zM882.215385 512l96.492307-96.492308c7.876923-7.876923 7.876923-19.692308 0-27.56923l-27.56923-27.569231c-7.876923-7.876923-19.692308-7.876923-27.569231 0l-96.492308 96.492307-96.492308-96.492307c-7.876923-7.876923-19.692308-7.876923-27.56923 0l-27.569231 27.569231c-7.876923 7.876923-7.876923 19.692308 0 27.56923L771.938462 512l-96.492308 96.492308c-7.876923 7.876923-7.876923 19.692308 0 27.56923l27.569231 27.569231c7.876923 7.876923 19.692308 7.876923 27.56923 0l96.492308-96.492307 96.492308 96.492307c7.876923 7.876923 19.692308 7.876923 27.569231 0l27.56923-27.569231c7.876923-7.876923 7.876923-19.692308 0-27.56923L882.215385 512z"/>
</svg>
