<svg xmlns="http://www.w3.org/2000/svg" width="200" height="200" class="icon" viewBox="0 0 1024 1024">
	<path fill="#fff" d="M484.430769 51.2 236.307692 354.461538H118.153846c-43.323077 0-78.769231 35.446154-78.769231 78.769231v157.538462c0 43.323077 35.446154 78.769231 78.769231 78.769231h118.153846L484.430769 972.8c25.6 25.6 66.953846 7.876923 66.953846-27.569231V78.769231c0-35.446154-43.323077-53.169231-66.953846-27.569231zm354.461539 120.123077c-7.876923-7.876923-19.692308-7.876923-27.569231 0l-27.569231 27.569231c-7.876923 7.876923-7.876923 21.661538 0 27.56923C858.584615 299.323077 905.846154 399.753846 905.846154 512c0 112.246154-47.261538 212.676923-122.092308 285.538462-7.876923 7.876923-7.876923 19.692308 0 27.56923l27.569231 27.569231c7.876923 7.876923 19.692308 7.876923 27.569231 0C927.507692 768 984.615385 645.907692 984.615385 512s-55.138462-256-145.723077-340.676923zM714.830769 297.353846c-7.876923-7.876923-19.692308-7.876923-27.569231 0l-27.56923 27.569231c-7.876923 7.876923-7.876923 19.692308 0 27.569231C703.015385 391.876923 728.615385 448.984616 728.615385 512c0 63.015385-27.569231 120.123077-70.892308 159.507692-7.876923 7.876923-7.876923 19.692308 0 27.569231l27.569231 27.569231c7.876923 7.876923 19.692308 7.876923 27.56923 0 57.107692-53.169231 94.523077-129.969231 94.523077-216.615385 0-82.707692-35.446154-159.507692-92.553846-212.676923z"/>
</svg>
