<svg xmlns="http://www.w3.org/2000/svg" viewBox="0 0 20 20">
	<path d="M11.414 3.635a.5.5 0 0 0 0-.707L9.293.807a.5.5 0 0 0-.707.707l.997.997a7.48 7.48 0 0 0-4.886 2.185 7.5 7.5 0 0 0 0 10.607c.257.256.528.491.811.703a.5.5 0 0 0 .6-.8 6.516 6.516 0 0 1-.704-.611 6.5 6.5 0 0 1 4.662-11.096.506.506 0 0 0 .074-.004L8.586 5.049a.5.5 0 0 0 .707.707l2.121-2.121Zm-2.828 12.728a.5.5 0 0 0 0 .707l2.121 2.121a.5.5 0 0 0 .707-.707l-.997-.997a7.48 7.48 0 0 0 4.886-2.185 7.5 7.5 0 0 0 0-10.607 7.436 7.436 0 0 0-.811-.703.5.5 0 0 0-.6.8c.245.184.48.387.704.611a6.5 6.5 0 0 1-4.662 11.096.506.506 0 0 0-.074.004l1.554-1.554a.5.5 0 0 0-.707-.707l-2.121 2.121Z" fill="currentColor"/>
</svg>
