<svg width="24" height="24" viewBox="0 0 24 24" fill="none" xmlns="http://www.w3.org/2000/svg">
<path d="M11.9999 9.00462C14.209 9.00462 15.9999 10.7955 15.9999 13.0046C15.9999 15.2138 14.209 17.0046 11.9999 17.0046C9.79073 17.0046 7.99987 15.2138 7.99987 13.0046C7.99987 10.7955 9.79073 9.00462 11.9999 9.00462ZM11.9999 10.5046C10.6192 10.5046 9.49987 11.6239 9.49987 13.0046C9.49987 14.3853 10.6192 15.5046 11.9999 15.5046C13.3806 15.5046 14.4999 14.3853 14.4999 13.0046C14.4999 11.6239 13.3806 10.5046 11.9999 10.5046ZM11.9999 5.5C16.6134 5.5 20.596 8.65001 21.701 13.0644C21.8016 13.4662 21.5574 13.8735 21.1556 13.9741C20.7537 14.0746 20.3465 13.8305 20.2459 13.4286C19.307 9.67796 15.9212 7 11.9999 7C8.07681 7 4.68997 9.68026 3.75273 13.4332C3.65237 13.835 3.24523 14.0794 2.84336 13.9791C2.44149 13.8787 2.19707 13.4716 2.29743 13.0697C3.40052 8.65272 7.38436 5.5 11.9999 5.5Z" fill="#212121"/>
</svg>
