<?xml version="1.0" standalone="no"?><!DOCTYPE svg PUBLIC "-//W3C//DTD SVG 1.1//EN" "http://www.w3.org/Graphics/SVG/1.1/DTD/svg11.dtd"><svg t="1761042005281" class="icon" viewBox="0 0 1024 1024" version="1.1" xmlns="http://www.w3.org/2000/svg" p-id="8444" width="16" height="16" xmlns:xlink="http://www.w3.org/1999/xlink"><path d="M817.834667 627.643733h-272.725334v-80.554666a93.661867 93.661867 0 0 0-33.109333-181.248 93.661867 93.661867 0 0 0-33.109333 181.248v80.554666H206.165333c-49.493333 0-89.770667 40.277333-89.770666 89.770667v114.688c0 49.493333 40.277333 89.429333 89.770666 89.429333h611.669334c49.493333 0 89.770667-39.936 89.770666-89.429333v-114.688c0-49.493333-40.277333-89.770667-89.770666-89.770667z m-598.698667 181.248a34.0992 34.0992 0 0 1-34.474667-34.133333c0-18.773333 15.36-34.133333 34.474667-34.133333 18.773333 0 33.792 15.36 33.792 34.133333 0 19.114667-15.018667 34.133333-33.792 34.133333z m136.533333 0a34.0992 34.0992 0 0 1-34.474666-34.133333c0-18.773333 15.36-34.133333 34.474666-34.133333 18.773333 0 33.792 15.36 33.792 34.133333 0 19.114667-15.018667 34.133333-33.792 34.133333z m136.533334 0a34.0992 34.0992 0 0 1-34.474667-34.133333c0-18.773333 15.36-34.133333 34.474667-34.133333 18.773333 0 33.792 15.36 33.792 34.133333 0 19.114667-15.018667 34.133333-33.792 34.133333z" p-id="8445"></path><path d="M190.293333 508.791467a32.9728 32.9728 0 0 0 31.300267-34.542934A292.181333 292.181333 0 0 1 306.176 253.508267c113.595733-113.5616 298.325333-113.5616 411.8528 0a291.7376 291.7376 0 0 1 84.411733 220.706133 32.9728 32.9728 0 0 0 65.8432 3.310933c5.085867-101.034667-32.699733-199.68-103.6288-270.6432-139.264-139.195733-365.841067-139.264-505.105066 0a358.126933 358.126933 0 0 0-103.799467 270.609067 33.041067 33.041067 0 0 0 34.542933 31.300267z" p-id="8446"></path><path d="M352.768 300.1344c-46.523733 46.557867-69.973333 111.616-64.375467 178.517333 1.501867 18.090667 17.066667 31.880533 35.601067 30.037334a32.938667 32.938667 0 0 0 30.1056-35.601067c-3.9936-47.5136 12.4928-93.559467 45.294933-126.327467a159.573333 159.573333 0 0 1 225.416534-0.034133c32.768 32.733867 49.186133 78.813867 45.124266 126.327467a32.9728 32.9728 0 0 0 65.706667 5.597866c5.700267-66.935467-17.7152-132.027733-64.238933-178.517333a225.553067 225.553067 0 0 0-318.634667 0z" p-id="8447"></path></svg>