<svg xmlns="http://www.w3.org/2000/svg" viewBox="0 0 20 20">
	<path d="M15.493 13.497C13.565 16.836 9.296 17.98 5.957 16.052c-.757-.437-1.412-1-1.946-1.663 2.83-1.087 4.557-2.421 5.592-4.396 1.048-2 1.337-4.161.76-6.91.898.118 1.77.412 2.575.877 3.339 1.928 4.483 6.198 2.555 9.537Zm-10.036 3.421c3.817 2.204 8.698.896 10.902-2.921 2.204-3.818.896-8.699-2.921-10.903a7.97 7.97 0 0 0-3.557-1.059.575.575 0 0 0-.614.74c.688 2.819.434 4.876-.55 6.753-.934 1.784-2.544 3.031-5.55 4.107a.578.578 0 0 0-.292.903 7.98 7.98 0 0 0 2.582 2.38Z" fill="currentColor"/>
</svg>
