<?xml version="1.0" standalone="no"?><!DOCTYPE svg PUBLIC "-//W3C//DTD SVG 1.1//EN" "http://www.w3.org/Graphics/SVG/1.1/DTD/svg11.dtd"><svg t="1761041450663" class="icon" viewBox="0 0 1024 1024" version="1.1" xmlns="http://www.w3.org/2000/svg" p-id="5826" width="16" height="16" xmlns:xlink="http://www.w3.org/1999/xlink"><path d="M888 128H170.4c-39.6 0-71.9 32.2-72 71.7-0.3 2.7-0.4 5.5-0.4 8.2v607.6c0 2.8 0.1 5.5 0.4 8.3 0.2 39.5 32.4 71.7 72 71.7h4.6c1 0 2 0.1 3 0.1h29c1 0 2 0 3-0.1h678c39.7 0 72-32.3 72-72V200c0-39.7-32.3-72-72-72z m-220 72v623.6H515.5V200H668zM192.5 447.1c-19.9 0-36-16.1-36-36s16.1-36 36-36 36 16.1 36 36-16.1 36-36 36z m0-118.3c-19.9 0-36-16.1-36-36s16.1-36 36-36 36 16.1 36 36-16.1 36-36 36zM286.6 200h157v623.6h-157c0.3-2.6 0.4-5.3 0.4-7.9V208c0-2.7-0.2-5.4-0.4-8zM888 823.6H740V200h148v623.6z" p-id="5827"></path><path d="M329.8 256.3h72v120h-72zM555.8 256.3h72v120h-72zM777.2 256.3h72v120h-72z" p-id="5828"></path></svg>