<?xml version="1.0" standalone="no"?><!DOCTYPE svg PUBLIC "-//W3C//DTD SVG 1.1//EN" "http://www.w3.org/Graphics/SVG/1.1/DTD/svg11.dtd"><svg t="1761042033823" class="icon" viewBox="0 0 1024 1024" version="1.1" xmlns="http://www.w3.org/2000/svg" p-id="9763" width="16" height="16" xmlns:xlink="http://www.w3.org/1999/xlink"><path d="M911.6 645.7h-72.8V499.2H524.1V378.3h72.8c26.7 0 48.4-21.7 48.4-48.4v-97.2c0-26.7-21.7-48.4-48.4-48.4H427.1c-26.7 0-48.4 21.7-48.4 48.4v97.2c0 26.7 21.7 48.4 48.4 48.4h72.8v120.8H185.2v146.5h-72.8C85.7 645.6 64 667.3 64 694v97.2c0 26.7 21.7 48.4 48.4 48.4h169.8c26.7 0 48.4-21.7 48.4-48.4V694c0-26.7-21.7-48.4-48.4-48.4h-72.8V523.4h290.5v122.3h-72.8c-26.7 0-48.4 21.7-48.4 48.4v97.2c0 26.7 21.7 48.4 48.4 48.4h169.8c26.7 0 48.4-21.7 48.4-48.4v-97.2c0-26.7-21.7-48.4-48.4-48.4h-72.8V523.4h290.5v122.3h-72.8c-26.7 0-48.4 21.7-48.4 48.4v97.2c0 26.7 21.7 48.4 48.4 48.4h169.8c26.7 0 48.4-21.7 48.4-48.4v-97.2c0-26.8-21.7-48.4-48.4-48.4z" p-id="9764"></path></svg>