<svg xmlns="http://www.w3.org/2000/svg" viewBox="0 0 24 24">
    <path fill="#5f6368" stroke="null"
        d="M16.85 17.33a.44.44 0 0 1 .26.77 7.95 7.95 0 0 1-11.18-1.08 7.95 7.95 0 0 1-1.18-1.93.44.44 0 0 1 .6-.56 33.9 33.9 0 0 0 5.44 1.92 30.2 30.2 0 0 0 6.06.88zm-5.23-4.3a19.08 19.08 0 0 0 7.95.6.44.44 0 0 0 .33-.35A7.95 7.95 0 0 0 4.5 9.53a.43.43 0 0 0 .14.47 19.2 19.2 0 0 0 6.98 3.05v-.02zm10.92 1.33c.06-.22.08-.45.06-.67a.89.89 0 0 0-1.77.22c-.18.66-3.6 1.45-9.43 0-4.41-1.11-7.43-2.88-8.12-4.05a.58.58 0 0 1-.12-.37.88.88 0 0 0-1.7-.46 2.19 2.19 0 0 0 .29 1.72c1.07 1.8 4.68 3.72 9.2 4.86a27.58 27.58 0 0 0 6.48.89c2.65.01 4.7-.59 5.11-2.11v-.03z" />
</svg>