<svg width="24" height="24" viewBox="0 0 24 24" fill="none" xmlns="http://www.w3.org/2000/svg">
<path d="M12.0001 1.99805C17.5238 1.99805 22.0016 6.47589 22.0016 11.9996C22.0016 17.5233 17.5238 22.0011 12.0001 22.0011C6.47638 22.0011 1.99854 17.5233 1.99854 11.9996C1.99854 6.47589 6.47638 1.99805 12.0001 1.99805ZM14.939 16.4993H9.06118C9.71322 18.9135 10.8466 20.5011 12.0001 20.5011C13.1536 20.5011 14.2869 18.9135 14.939 16.4993ZM7.5084 16.4999L4.78591 16.4998C5.74425 18.0328 7.1777 19.2384 8.88008 19.9104C8.3578 19.0906 7.92681 18.0643 7.60981 16.8949L7.5084 16.4999ZM19.2143 16.4998L16.4918 16.4999C16.168 17.8337 15.7004 18.9995 15.119 19.9104C16.716 19.2804 18.0757 18.1814 19.0291 16.7833L19.2143 16.4998ZM7.09351 9.99895H3.7359L3.73115 10.0162C3.57906 10.6525 3.49854 11.3166 3.49854 11.9996C3.49854 13.0558 3.69112 14.0669 4.0431 14.9999L7.21626 14.9995C7.07396 14.0504 6.99854 13.0422 6.99854 11.9996C6.99854 11.3156 7.031 10.6464 7.09351 9.99895ZM15.397 9.99901H8.60316C8.53514 10.6393 8.49853 11.309 8.49853 11.9996C8.49853 13.0591 8.58468 14.0694 8.73827 14.9997H15.2619C15.4155 14.0694 15.5016 13.0591 15.5016 11.9996C15.5016 11.309 15.465 10.6393 15.397 9.99901ZM20.2647 9.99811L16.9067 9.99897C16.9692 10.6464 17.0016 11.3156 17.0016 11.9996C17.0016 13.0422 16.9262 14.0504 16.7839 14.9995L19.9571 14.9999C20.309 14.0669 20.5016 13.0558 20.5016 11.9996C20.5016 11.3102 20.4196 10.64 20.2647 9.99811ZM8.88114 4.08875L8.85823 4.09747C6.81092 4.91218 5.1549 6.49949 4.25023 8.49935L7.29835 8.49972C7.61171 6.74693 8.15855 5.221 8.88114 4.08875ZM12.0001 3.49805L11.8844 3.50335C10.619 3.6191 9.39651 5.62107 8.8288 8.4993H15.1714C14.6052 5.62914 13.388 3.63033 12.1264 3.50436L12.0001 3.49805ZM15.1201 4.08881L15.2269 4.2629C15.8961 5.37537 16.4043 6.83525 16.7018 8.49972L19.7499 8.49935C18.8853 6.58795 17.3343 5.05341 15.4113 4.21008L15.1201 4.08881Z" fill="#212121"/>
</svg>
