<svg xmlns="http://www.w3.org/2000/svg" width="24" height="24">
    <path fill="#5f6368"
        d="M4.74 2.25h3.82q2.48 0 2.48 2.49v3.82q0 2.48-2.48 2.48H4.74q-2.49 0-2.49-2.48V4.74q0-2.49 2.49-2.49zm10.13 0h3.82q2.48 0 2.48 2.49v3.82q0 2.48-2.48 2.48h-3.82q-2.49 0-2.49-2.48V4.74q0-2.49 2.49-2.49zM4.74 12.38h3.82q2.48 0 2.48 2.49v3.82q0 2.48-2.48 2.48H4.74q-2.49 0-2.49-2.48v-3.82q0-2.49 2.49-2.49z" />
    <path fill="#5f6368"
        d="m12.67 14.96 2.3-2.3q1.8-1.8 3.53 0l2.39 2.3q1.72 1.82 0 3.54l-2.4 2.39q-1.71 1.72-3.53 0l-2.3-2.4q-1.8-1.71 0-3.53z" />
</svg>