<svg width="24" height="24" viewBox="0 0 24 24" fill="none" xmlns="http://www.w3.org/2000/svg">
<path d="M18.4923 2.33088L21.671 5.50966C22.5497 6.38834 22.5497 7.81296 21.671 8.69164L19.0866 11.2756C20.1696 11.438 21 12.3723 21 13.5006V18.7506C21 19.9932 19.9926 21.0006 18.75 21.0006H5.25C4.00736 21.0006 3 19.9932 3 18.7506V5.25055C3 4.00791 4.00736 3.00055 5.25 3.00055H10.5C11.6289 3.00055 12.5637 3.83201 12.7253 4.91596L15.3103 2.33088C16.189 1.45221 17.6136 1.45221 18.4923 2.33088ZM4.5 18.7506C4.5 19.1648 4.83579 19.5006 5.25 19.5006L11.249 19.4999L11.25 12.7506L4.5 12.7499V18.7506ZM12.749 19.4999L18.75 19.5006C19.1642 19.5006 19.5 19.1648 19.5 18.7506V13.5006C19.5 13.0863 19.1642 12.7506 18.75 12.7506L12.749 12.7499V19.4999ZM10.5 4.50055H5.25C4.83579 4.50055 4.5 4.83634 4.5 5.25055V11.2499H11.25V5.25055C11.25 4.83634 10.9142 4.50055 10.5 4.50055ZM12.75 9.30988V11.2506L14.69 11.2499L12.75 9.30988ZM16.3709 3.39154L13.1922 6.57032C12.8993 6.86321 12.8993 7.33808 13.1922 7.63098L16.3709 10.8097C16.6638 11.1026 17.1387 11.1026 17.4316 10.8097L20.6104 7.63098C20.9033 7.33808 20.9033 6.86321 20.6104 6.57032L17.4316 3.39154C17.1387 3.09865 16.6638 3.09865 16.3709 3.39154Z" fill="#212121"/>
</svg>
