<svg xmlns="http://www.w3.org/2000/svg" viewBox="0 0 24 24">
<path d="M12 3C6.75 3 2.5 6.9 2.5 11.7C2.5 15.8 5.85 19.25 10.3 20.15C11.35 20.36 12.25 19.55 12.25 18.55V17.7C12.25 16.98 12.83 16.4 13.55 16.4H15.95C19.15 16.4 21.5 14.15 21.5 11.2C21.5 6.65 17.25 3 12 3ZM10.02 18.68C6.58 17.95 4 15.08 4 11.7C4 7.75 7.58 4.5 12 4.5C16.45 4.5 20 7.5 20 11.2C20 13.3 18.38 14.9 15.95 14.9H13.55C12.01 14.9 10.75 16.16 10.75 17.7V18.55C10.75 18.65 10.67 18.82 10.42 18.77C10.28 18.74 10.15 18.71 10.02 18.68Z" fill="currentColor"/>
<path d="M7.25 11.25C8.08 11.25 8.75 10.58 8.75 9.75C8.75 8.92 8.08 8.25 7.25 8.25C6.42 8.25 5.75 8.92 5.75 9.75C5.75 10.58 6.42 11.25 7.25 11.25Z" fill="currentColor"/>
<path d="M11 8.5C11.83 8.5 12.5 7.83 12.5 7C12.5 6.17 11.83 5.5 11 5.5C10.17 5.5 9.5 6.17 9.5 7C9.5 7.83 10.17 8.5 11 8.5Z" fill="currentColor"/>
<path d="M15.5 9.25C16.33 9.25 17 8.58 17 7.75C17 6.92 16.33 6.25 15.5 6.25C14.67 6.25 14 6.92 14 7.75C14 8.58 14.67 9.25 15.5 9.25Z" fill="currentColor"/>
<path d="M17.25 13.25C18.08 13.25 18.75 12.58 18.75 11.75C18.75 10.92 18.08 10.25 17.25 10.25C16.42 10.25 15.75 10.92 15.75 11.75C15.75 12.58 16.42 13.25 17.25 13.25Z" fill="currentColor"/>
</svg>
