<svg width="24" height="24" viewBox="0 0 24 24" fill="none" xmlns="http://www.w3.org/2000/svg">
<path d="M17.75 3C19.5449 3 21 4.45507 21 6.25V17.75C21 19.5449 19.5449 21 17.75 21H6.25C4.45507 21 3 19.5449 3 17.75V6.25C3 4.45507 4.45507 3 6.25 3H17.75ZM4.5 17.75C4.5 18.7165 5.2835 19.5 6.25 19.5H11.5V9.5H4.5V17.75ZM13 16V19.5H17.75C18.7165 19.5 19.5 18.7165 19.5 17.75V16H13ZM13 14.5H19.5V6.25C19.5 5.2835 18.7165 4.5 17.75 4.5H13V14.5ZM6.25 4.5C5.2835 4.5 4.5 5.2835 4.5 6.25V8H11.5V4.5H6.25Z" fill="#212121"/>
</svg>
