<svg xmlns="http://www.w3.org/2000/svg" viewBox="0 0 24 24">
    <path fill="#5f6368" d="M18.8 8.12a2.91 2.91 0 1 1 2.9-2.91 2.91 2.91 0 0 1-2.9 2.9z" />
    <path fill="#5f6368"
        d="M15.38 21.7H7.65a5.28 5.28 0 0 1-.74-.05l-.34-.05a4.62 4.62 0 0 1-4.17-4.17l-.05-.34c0-.12-.03-.23-.04-.34l-.02-.4V8.62a5.28 5.28 0 0 1 .06-.74l.05-.34a4.62 4.62 0 0 1 4.17-4.17l.34-.05c.12 0 .23-.03.34-.04l.4-.02h5.9a.96.96 0 0 1 .75.35.98.98 0 0 1 .2.82.13.13 0 0 1 0 .03.12.12 0 0 0 0 .03 2.09 2.09 0 0 0-.05.3 4.52 4.52 0 0 0 .07 1.29l.02.07a2.06 2.06 0 0 0 .07.25 3.34 3.34 0 0 0 .36.9 3.17 3.17 0 0 0 .17.28l.04.06a4.6 4.6 0 0 0 1.18 1.19l.06.03.28.17a3.35 3.35 0 0 0 .9.37 2.06 2.06 0 0 0 .25.07l.07.02a4.63 4.63 0 0 0 .9.08c.13 0 .26 0 .4-.02l.13-.02.17-.02a.13.13 0 0 0 .03 0 .13.13 0 0 1 .03 0 1.01 1.01 0 0 1 .19-.03.97.97 0 0 1 .97.97v5.9a5.23 5.23 0 0 1-.06.74l-.05.33a4.62 4.62 0 0 1-4.18 4.18l-.33.05c-.11 0-.23.03-.34.04l-.4.02zM6.9 16.38a.74.74 0 0 0-.72.73.73.73 0 0 0 .72.72h8.74a.73.73 0 0 0 0-1.45H6.9zm0-3.88a.73.73 0 0 0-.72.72.74.74 0 0 0 .72.73h4.86a.74.74 0 0 0 .73-.73.73.73 0 0 0-.73-.72H6.9z" />
</svg>