<?xml version="1.0" standalone="no"?><!DOCTYPE svg PUBLIC "-//W3C//DTD SVG 1.1//EN" "http://www.w3.org/Graphics/SVG/1.1/DTD/svg11.dtd"><svg t="1761041980620" class="icon" viewBox="0 0 1024 1024" version="1.1" xmlns="http://www.w3.org/2000/svg" p-id="7231" width="16" height="16" xmlns:xlink="http://www.w3.org/1999/xlink"><path d="M938.666667 170.666667 938.666667 149.333333C938.666667 89.6 891.733333 42.666667 832 42.666667 772.266667 42.666667 725.333333 89.6 725.333333 149.333333L725.333333 170.666667c-25.6 0-42.666667 17.066667-42.666667 42.666667l0 170.666667c0 25.6 17.066667 42.666667 42.666667 42.666667l213.333333 0c25.6 0 42.666667-17.066667 42.666667-42.666667L981.333333 213.333333C981.333333 187.733333 964.266667 170.666667 938.666667 170.666667zM904.533333 170.666667l-145.066667 0L759.466667 149.333333c0-38.4 34.133333-72.533333 72.533333-72.533333 38.4 0 72.533333 34.133333 72.533333 72.533333L904.533333 170.666667zM806.4 512c0 12.8 4.266667 29.866667 4.266667 42.666667 0 89.6-34.133333 170.666667-89.6 230.4-12.8-34.133333-42.666667-59.733333-81.066667-59.733333l-42.666667 0 0-128c0-25.6-17.066667-42.666667-42.666667-42.666667L298.666667 554.666667l0-85.333333 85.333333 0c25.6 0 42.666667-17.066667 42.666667-42.666667L426.666667 341.333333l85.333333 0c46.933333 0 85.333333-38.4 85.333333-85.333333L597.333333 149.333333C558.933333 136.533333 512 128 469.333333 128 234.666667 128 42.666667 320 42.666667 554.666667c0 234.666667 192 426.666667 426.666667 426.666667 234.666667 0 426.666667-192 426.666667-426.666667 0-12.8 0-29.866667-4.266667-42.666667L806.4 512zM426.666667 891.733333c-166.4-21.333333-298.666667-166.4-298.666667-337.066667 0-25.6 4.266667-51.2 8.533333-76.8L341.333333 682.666667l0 42.666667c0 46.933333 38.4 85.333333 85.333333 85.333333L426.666667 891.733333z" p-id="7232"></path></svg>