<?xml version="1.0" standalone="no"?><!DOCTYPE svg PUBLIC "-//W3C//DTD SVG 1.1//EN" "http://www.w3.org/Graphics/SVG/1.1/DTD/svg11.dtd"><svg t="1760837779866" class="icon" viewBox="0 0 1024 1024" version="1.1" xmlns="http://www.w3.org/2000/svg" p-id="4564" xmlns:xlink="http://www.w3.org/1999/xlink" width="200" height="200"><path d="M938.666667 170.666667v-21.333334C938.666667 89.6 891.733333 42.666667 832 42.666667S725.333333 89.6 725.333333 149.333333V170.666667c-25.6 0-42.666667 17.066667-42.666666 42.666666v170.666667c0 25.6 17.066667 42.666667 42.666666 42.666667h213.333334c25.6 0 42.666667-17.066667 42.666666-42.666667V213.333333c0-25.6-17.066667-42.666667-42.666666-42.666666z m-34.133334 0h-145.066666v-21.333334c0-38.4 34.133333-72.533333 72.533333-72.533333 38.4 0 72.533333 34.133333 72.533333 72.533333V170.666667z m-98.133333 341.333333c0 12.8 4.266667 29.866667 4.266667 42.666667 0 89.6-34.133333 170.666667-89.6 230.4-12.8-34.133333-42.666667-59.733333-81.066667-59.733334h-42.666667v-128c0-25.6-17.066667-42.666667-42.666666-42.666666H298.666667v-85.333334h85.333333c25.6 0 42.666667-17.066667 42.666667-42.666666V341.333333h85.333333c46.933333 0 85.333333-38.4 85.333333-85.333333V149.333333c-38.4-12.8-85.333333-21.333333-128-21.333333C234.666667 128 42.666667 320 42.666667 554.666667s192 426.666667 426.666666 426.666666 426.666667-192 426.666667-426.666666c0-12.8 0-29.866667-4.266667-42.666667h-85.333333zM426.666667 891.733333C260.266667 870.4 128 725.333333 128 554.666667c0-25.6 4.266667-51.2 8.533333-76.8L341.333333 682.666667v42.666666c0 46.933333 38.4 85.333333 85.333334 85.333334v81.066666z" p-id="4565"></path></svg>